<?xml version="1.0" encoding="UTF-8" standalone="no"?>
<!-- Generator: Adobe Illustrator 19.0.0, SVG Export Plug-In . SVG Version: 6.00 Build 0)  -->

<svg
   xmlns:dc="http://purl.org/dc/elements/1.1/"
   xmlns:cc="http://creativecommons.org/ns#"
   xmlns:rdf="http://www.w3.org/1999/02/22-rdf-syntax-ns#"
   xmlns:svg="http://www.w3.org/2000/svg"
   xmlns="http://www.w3.org/2000/svg"
   xmlns:sodipodi="http://sodipodi.sourceforge.net/DTD/sodipodi-0.dtd"
   xmlns:inkscape="http://www.inkscape.org/namespaces/inkscape"
   version="1.1"
   id="Capa_1"
   x="0px"
   y="0px"
   viewBox="0 0 51.707943 46.788734"
   xml:space="preserve"
   sodipodi:docname="cable.svg"
   inkscape:version="0.92.3 (3ce5693, 2018-03-11)"
   width="51.707943"
   height="46.788734"><metadata
   id="metadata1008"><rdf:RDF><cc:Work
       rdf:about=""><dc:format>image/svg+xml</dc:format><dc:type
         rdf:resource="http://purl.org/dc/dcmitype/StillImage" /><dc:title></dc:title></cc:Work></rdf:RDF></metadata><defs
   id="defs1006" /><sodipodi:namedview
   pagecolor="#ffffff"
   bordercolor="#666666"
   borderopacity="1"
   objecttolerance="10"
   gridtolerance="10"
   guidetolerance="10"
   inkscape:pageopacity="0"
   inkscape:pageshadow="2"
   inkscape:window-width="1366"
   inkscape:window-height="658"
   id="namedview1004"
   showgrid="false"
   inkscape:zoom="7.4736842"
   inkscape:cx="23.207943"
   inkscape:cy="30.498786"
   inkscape:window-x="0"
   inkscape:window-y="27"
   inkscape:window-maximized="1"
   inkscape:current-layer="Capa_1"
   fit-margin-top="0"
   fit-margin-left="0"
   fit-margin-right="0"
   fit-margin-bottom="0" />





<path
   style="fill:#e7eced"
   d="m 23.707943,46.788733 c -7.168,0 -13,-5.832 -13,-13 0,-7.168 5.832,-13 13,-13 7.168,0 13,5.832 13,13 0,7.168 -5.832,13 -13,13 z m 0,-24 c -6.065,0 -11,4.935 -11,11 0,6.065 4.935,11 11,11 6.065,0 11,-4.935 11,-11 0,-6.065 -4.935,-11 -11,-11 z"
   id="path951"
   inkscape:connector-curvature="0" />
<path
   style="fill:#e7eced"
   d="m 23.166943,46.788733 c -10.955,0 -19.9259996,-8.655 -20.4369996,-19.486 h -0.022 V 9.7887328 h 2 V 26.329733 c 0,10.179 8.2799996,18.459 18.4589996,18.459 15.571,0 22.541,-9.72 22.541,-19.352 v -4.648 h 2 v 4.648 c 0,12.572 -10.092,21.352 -24.541,21.352 z"
   id="path953"
   inkscape:connector-curvature="0" />
<path
   style="fill:#afb6bb"
   d="m 46.771323,22.788733 v 0 c -1.105,0 -2,-0.895 -2,-2 v -3 h 4 v 3 c 0,1.105 -0.895,2 -2,2 z"
   id="path955"
   inkscape:connector-curvature="0" />



<path
   style="fill:#e7eced"
   d="m 23.707943,46.788733 c -8.822,0 -15.9999996,-7.178 -15.9999996,-16 0,-8.822 7.1779996,-16 15.9999996,-16 8.822,0 16,7.178 16,16 0,8.822 -7.178,16 -16,16 z m 0,-30 c -7.72,0 -13.9999996,6.28 -13.9999996,14 0,7.72 6.2799996,14 13.9999996,14 7.72,0 14,-6.28 14,-14 0,-7.72 -6.28,-14 -14,-14 z"
   id="path963"
   inkscape:connector-curvature="0" />
<rect
   x="42.771324"
   y="5.7887325"
   style="fill:#afb6bb"
   width="8"
   height="7"
   id="rect965" />
<path
   style="fill:#e7eced"
   d="m 41.771323,11.788733 v 5.206 c 0,0.439 0.356,0.794 0.794,0.794 h 2.206 6.206 -2.206 v 0 h 2.206 c 0.439,0 0.794,-0.356 0.794,-0.794 v -5.206 z"
   id="path967"
   inkscape:connector-curvature="0"
   sodipodi:nodetypes="cssccccsscc" />
<rect
   x="43.707943"
   y="7.7887325"
   style="fill:#e7eced"
   width="2"
   height="2"
   id="rect969" />
<rect
   x="47.707943"
   y="7.7887325"
   style="fill:#e7eced"
   width="2"
   height="2"
   id="rect971" />
<g
   id="g973"
   transform="translate(-5.2920566,-9.7112672)">
</g>
<g
   id="g975"
   transform="translate(-5.2920566,-9.7112672)">
</g>
<g
   id="g977"
   transform="translate(-5.2920566,-9.7112672)">
</g>
<g
   id="g979"
   transform="translate(-5.2920566,-9.7112672)">
</g>
<g
   id="g981"
   transform="translate(-5.2920566,-9.7112672)">
</g>
<g
   id="g983"
   transform="translate(-5.2920566,-9.7112672)">
</g>
<g
   id="g985"
   transform="translate(-5.2920566,-9.7112672)">
</g>
<g
   id="g987"
   transform="translate(-5.2920566,-9.7112672)">
</g>
<g
   id="g989"
   transform="translate(-5.2920566,-9.7112672)">
</g>
<g
   id="g991"
   transform="translate(-5.2920566,-9.7112672)">
</g>
<g
   id="g993"
   transform="translate(-5.2920566,-9.7112672)">
</g>
<g
   id="g995"
   transform="translate(-5.2920566,-9.7112672)">
</g>
<g
   id="g997"
   transform="translate(-5.2920566,-9.7112672)">
</g>
<g
   id="g999"
   transform="translate(-5.2920566,-9.7112672)">
</g>
<g
   id="g1001"
   transform="translate(-5.2920566,-9.7112672)">
</g>
<g
   id="g1013"
   transform="matrix(0.30450102,0,0,1.1873239,1.0799133,-0.59366195)"><rect
     id="rect943"
     height="5"
     width="16"
     style="fill:#afb6bb"
     y="0.5"
     x="1" /><rect
     id="rect945"
     height="3"
     width="2"
     style="fill:#e7eced"
     y="2.5"
     x="3" /><rect
     id="rect947"
     height="3"
     width="2"
     style="fill:#e7eced"
     y="2.5"
     x="13" /></g><rect
   x="1.932765"
   y="3.7297328"
   style="fill:#afb6bb;stroke-width:0.97150838"
   width="3.7753141"
   height="6.059"
   id="rect949" /><rect
   y="3.7887328"
   style="fill:#e7eced;stroke-width:0.48713797"
   width="7.7887316"
   height="4.3873239"
   id="rect941"
   x="0" /></svg>