<?xml version="1.0" encoding="UTF-8" standalone="no"?>
<!-- Created with Inkscape (http://www.inkscape.org/) -->

<svg
   xmlns:dc="http://purl.org/dc/elements/1.1/"
   xmlns:cc="http://creativecommons.org/ns#"
   xmlns:rdf="http://www.w3.org/1999/02/22-rdf-syntax-ns#"
   xmlns:svg="http://www.w3.org/2000/svg"
   xmlns="http://www.w3.org/2000/svg"
   xmlns:sodipodi="http://sodipodi.sourceforge.net/DTD/sodipodi-0.dtd"
   xmlns:inkscape="http://www.inkscape.org/namespaces/inkscape"
   width="155.16556mm"
   height="150.45277mm"
   viewBox="0 0 155.16556 150.45277"
   version="1.1"
   id="svg8"
   inkscape:version="0.92.3 (3ce5693, 2018-03-11)"
   sodipodi:docname="charger.svg">
  <defs
     id="defs2" />
  <sodipodi:namedview
     id="base"
     pagecolor="#ffffff"
     bordercolor="#666666"
     borderopacity="1.0"
     inkscape:pageopacity="0.0"
     inkscape:pageshadow="2"
     inkscape:zoom="0.7"
     inkscape:cx="254.74667"
     inkscape:cy="319.87216"
     inkscape:document-units="mm"
     inkscape:current-layer="layer1"
     showgrid="false"
     inkscape:measure-start="812.857,734.286"
     inkscape:measure-end="762.857,865.714"
     inkscape:window-width="1366"
     inkscape:window-height="658"
     inkscape:window-x="0"
     inkscape:window-y="27"
     inkscape:window-maximized="1"
     fit-margin-top="0"
     fit-margin-left="0"
     fit-margin-right="0"
     fit-margin-bottom="0" />
  <metadata
     id="metadata5">
    <rdf:RDF>
      <cc:Work
         rdf:about="">
        <dc:format>image/svg+xml</dc:format>
        <dc:type
           rdf:resource="http://purl.org/dc/dcmitype/StillImage" />
        <dc:title></dc:title>
      </cc:Work>
    </rdf:RDF>
  </metadata>
  <g
     inkscape:label="Layer 1"
     inkscape:groupmode="layer"
     id="layer1"
     transform="translate(-16.908102,-70.115334)">
    <ellipse
       style="fill:none;stroke:#e7eced;stroke-width:5.30889177;stroke-miterlimit:10"
       cx="79.428261"
       cy="186.8835"
       id="circle869"
       rx="32.698376"
       ry="31.030161" />
    <path
       inkscape:connector-curvature="0"
       style="fill:none;stroke:#e7eced;stroke-width:5.30889177;stroke-miterlimit:10"
       d="m 24.930968,124.82317 v 45.28852 -2.51603 c 0,27.81079 23.717222,50.318 53.023142,50.318 35.17255,0 64.14604,-19.24905 64.14604,-52.62457 v -12.0216"
       id="path871" />
    <ellipse
       style="fill:none;stroke:#e7eced;stroke-width:5.30889177;stroke-miterlimit:10"
       cx="79.428261"
       cy="179.12596"
       id="circle873"
       rx="40.872971"
       ry="38.787701" />
    <rect
       x="111.37583"
       y="-32.509434"
       style="fill:#e7eced;stroke-width:2.24028707"
       width="13.696335"
       height="16.123363"
       id="rect875"
       transform="matrix(0.00469139,0.999989,-0.99997099,0.00761698,0,0)"
       inkscape:transform-center-x="11.928118"
       inkscape:transform-center-y="-27.07333" />
    <rect
       x="20.612272"
       y="105.62208"
       style="fill:#afb6bb;stroke-width:1.48009443"
       width="8.1745939"
       height="5.6277132"
       id="rect877" />
    <rect
       x="136.65042"
       y="142.9241"
       style="fill:#afb6bb;stroke-width:2.65444589"
       width="10.899459"
       height="12.929234"
       id="rect879" />
    <line
       style="fill:none;stroke:#6c797a;stroke-width:6.37219572;stroke-linecap:round;stroke-miterlimit:10"
       x1="158.41499"
       y1="73.49292"
       x2="158.41499"
       y2="88.394539"
       id="line885" />
    <g
       id="g889"
       transform="matrix(2.7248647,0,0,2.5858467,20.843671,75.692087)">
</g>
    <g
       id="g891"
       transform="matrix(2.7248647,0,0,2.5858467,20.843671,75.692087)">
</g>
    <g
       id="g893"
       transform="matrix(2.7248647,0,0,2.5858467,20.843671,75.692087)">
</g>
    <g
       id="g895"
       transform="matrix(2.7248647,0,0,2.5858467,20.843671,75.692087)">
</g>
    <g
       id="g897"
       transform="matrix(2.7248647,0,0,2.5858467,20.843671,75.692087)">
</g>
    <g
       id="g899"
       transform="matrix(2.7248647,0,0,2.5858467,20.843671,75.692087)">
</g>
    <g
       id="g901"
       transform="matrix(2.7248647,0,0,2.5858467,20.843671,75.692087)">
</g>
    <g
       id="g903"
       transform="matrix(2.7248647,0,0,2.5858467,20.843671,75.692087)">
</g>
    <g
       id="g905"
       transform="matrix(2.7248647,0,0,2.5858467,20.843671,75.692087)">
</g>
    <g
       id="g907"
       transform="matrix(2.7248647,0,0,2.5858467,20.843671,75.692087)">
</g>
    <g
       id="g909"
       transform="matrix(2.7248647,0,0,2.5858467,20.843671,75.692087)">
</g>
    <g
       id="g911"
       transform="matrix(2.7248647,0,0,2.5858467,20.843671,75.692087)">
</g>
    <g
       id="g913"
       transform="matrix(2.7248647,0,0,2.5858467,20.843671,75.692087)">
</g>
    <g
       id="g915"
       transform="matrix(2.7248647,0,0,2.5858467,20.843671,75.692087)">
</g>
    <g
       id="g917"
       transform="matrix(2.7248647,0,0,2.5858467,20.843671,75.692087)">
</g>
    <line
       style="fill:none;stroke:#6c797a;stroke-width:6.37219572;stroke-linecap:round;stroke-miterlimit:10"
       x1="127.75595"
       y1="73.346809"
       x2="127.75595"
       y2="88.248428"
       id="line885-3" />
    <path
       inkscape:connector-curvature="0"
       style="fill:#e7eced;stroke-width:2.65444589"
       d="m 168.39237,142.9241 h -52.58444 c -2.03275,0 -3.68129,-1.56444 -3.68129,-3.49348 V 92.114799 c 0,-1.929041 1.64854,-3.493479 3.68129,-3.493479 h 52.58444 c 2.03275,0 3.68129,1.564438 3.68129,3.493479 v 47.315821 c 0,1.92904 -1.64854,3.49348 -3.68129,3.49348 z"
       id="path881" />
  </g>
</svg>
