<?xml version="1.0" encoding="UTF-8" standalone="no"?>
<!-- Created with Inkscape (http://www.inkscape.org/) -->

<svg
   xmlns:dc="http://purl.org/dc/elements/1.1/"
   xmlns:cc="http://creativecommons.org/ns#"
   xmlns:rdf="http://www.w3.org/1999/02/22-rdf-syntax-ns#"
   xmlns:svg="http://www.w3.org/2000/svg"
   xmlns="http://www.w3.org/2000/svg"
   xmlns:sodipodi="http://sodipodi.sourceforge.net/DTD/sodipodi-0.dtd"
   xmlns:inkscape="http://www.inkscape.org/namespaces/inkscape"
   width="68.438286mm"
   height="82.37957mm"
   viewBox="0 0 68.438286 82.37957"
   version="1.1"
   id="svg8"
   inkscape:version="0.92.3 (3ce5693, 2018-03-11)"
   sodipodi:docname="drawing.svg">
  <defs
     id="defs2" />
  <sodipodi:namedview
     id="base"
     pagecolor="#ffffff"
     bordercolor="#666666"
     borderopacity="1.0"
     inkscape:pageopacity="0.0"
     inkscape:pageshadow="2"
     inkscape:zoom="0.12374369"
     inkscape:cx="1727.2375"
     inkscape:cy="496.82182"
     inkscape:document-units="mm"
     inkscape:current-layer="layer1"
     showgrid="false"
     fit-margin-top="0"
     fit-margin-left="0"
     fit-margin-right="0"
     fit-margin-bottom="0"
     inkscape:window-width="1366"
     inkscape:window-height="658"
     inkscape:window-x="0"
     inkscape:window-y="27"
     inkscape:window-maximized="1" />
  <metadata
     id="metadata5">
    <rdf:RDF>
      <cc:Work
         rdf:about="">
        <dc:format>image/svg+xml</dc:format>
        <dc:type
           rdf:resource="http://purl.org/dc/dcmitype/StillImage" />
        <dc:title></dc:title>
      </cc:Work>
    </rdf:RDF>
  </metadata>
  <g
     inkscape:label="Layer 1"
     inkscape:groupmode="layer"
     id="layer1"
     transform="translate(774.0212,-401.20484)">
    <g
       style="clip-rule:evenodd;fill-rule:evenodd;image-rendering:optimizeQuality;shape-rendering:geometricPrecision;text-rendering:geometricPrecision"
       id="g2311"
       transform="matrix(0.02540161,0,0,0.02540161,-851.83903,317.40587)">
      <path
         class="fil9"
         d="m 4201,3689 c -4,-29 -4,-58 2,-85 2,-9 17,-7 16,2 -4,113 55,259 174,292 21,-72 26,-146 33,-221 2,-17 28,-18 28,0 0,9 -1,20 -1,29 0,0 1,2 1,3 85,163 228,194 395,208 v 0 c 5,0 12,-2 12,5 0,42 -1,81 5,123 3,25 10,52 15,79 45,-52 148,-44 189,16 90,-113 162,-275 143,-422 -22,-170 -167,-170 -303,-153 -5,1 -9,-3 -11,-8 -2,-1 -4,-1 -5,-3 -93,-98 -180,-231 -335,-219 -135,11 -275,70 -387,145 -112,75 -209,175 -269,297 -34,70 -63,155 -19,228 37,60 89,104 154,130 -2,-64 2,-129 11,-190 15,-102 50,-216 153,-256 z"
         id="path2143"
         inkscape:connector-curvature="0"
         style="fill:#2d4959;fill-rule:nonzero" />
      <path
         class="fil10"
         d="m 5213,3718 c -11,-84 -51,-126 -106,-146 8,38 9,78 5,115 -6,59 -23,140 -82,170 -62,31 -136,-41 -156,-94 -4,-10 -19,-59 -36,-52 -9,4 -19,10 -28,12 -20,4 -40,-8 -56,-18 -40,-27 -61,-66 -85,-106 -30,29 -69,58 -94,9 -12,-23 -25,-55 -55,-55 -32,0 -57,35 -85,48 -19,9 -41,5 -51,-15 -11,-23 8,-61 15,-82 3,-11 9,-19 -6,-17 -12,1 -23,4 -35,8 -25,9 -48,21 -72,32 -34,15 -67,23 -104,17 -4,-1 -6,-5 -5,-9 6,-29 17,-54 32,-78 -13,8 -25,15 -37,23 -112,75 -209,175 -269,297 -34,70 -63,155 -19,228 37,60 89,104 154,130 -2,-64 2,-129 11,-190 15,-102 50,-216 153,-256 -4,-29 -4,-58 2,-85 2,-9 17,-7 16,2 -4,113 55,259 174,292 21,-72 26,-146 33,-221 2,-17 28,-18 28,0 0,9 -1,20 -1,29 0,0 1,2 1,3 85,163 228,194 395,208 v 0 c 5,0 12,-2 12,5 0,42 -1,81 5,123 3,25 10,52 15,79 45,-52 148,-44 189,16 90,-113 162,-275 143,-422 z"
         id="path2145"
         inkscape:connector-curvature="0"
         style="fill:#182f3a;fill-rule:nonzero" />
      <path
         class="fil11"
         d="m 4942,5261 c -8,10 -17,21 -25,31 -3,3 -5,6 -8,10 53,-7 107,-12 159,-25 63,-15 119,-40 179,-64 -4,-16 -7,-31 -11,-47 -34,36 -98,56 -144,70 -48,14 -101,28 -152,25 z"
         id="path2147"
         inkscape:connector-curvature="0"
         style="fill:#c3cccd;fill-rule:nonzero" />
      <path
         class="fil11"
         d="m 4543,5632 c -13,10 -27,19 -40,26 123,5 246,23 369,14 140,-10 314,-22 441,-93 -1,-11 -2,-21 -3,-31 -94,56 -229,65 -335,76 -141,15 -290,25 -431,8 z"
         id="path2149"
         inkscape:connector-curvature="0"
         style="fill:#c3cccd;fill-rule:nonzero" />
      <path
         class="fil6"
         d="m 4891,5325 c -62,77 -127,154 -199,221 -1,1 -3,2 -4,2 -6,5 -18,3 -21,-5 -3,-8 -6,-15 -9,-23 -23,28 -54,63 -90,93 117,-7 235,0 352,-10 123,-11 274,-21 385,-81 -1,-11 -3,-22 -5,-34 -13,-85 -29,-169 -47,-253 -98,62 -246,96 -363,90 z"
         id="path2151"
         inkscape:connector-curvature="0"
         style="fill:#dd953d;fill-rule:nonzero" />
      <path
         class="fil2"
         d="m 4938,6192 c -9,-4 -18,-8 -28,-11 -49,20 -100,37 -152,51 -62,65 -135,175 -76,262 54,11 110,14 166,9 44,-39 85,-74 106,-134 21,-62 26,-122 -16,-176 z"
         id="path2153"
         inkscape:connector-curvature="0"
         style="fill:#ffffff;fill-rule:nonzero" />
      <path
         class="fil11"
         d="m 4979,6217 c 39,80 3,201 -64,269 53,-30 95,-77 106,-139 12,-61 -6,-101 -43,-130 z"
         id="path2155"
         inkscape:connector-curvature="0"
         style="fill:#c3cccd;fill-rule:nonzero" />
      <path
         class="fil8"
         d="m 4644,6380 c -57,-10 -121,-23 -171,-53 -4,5 -7,10 -9,17 -4,13 -5,27 -2,41 0,0 1,1 1,1 56,50 121,83 191,102 -18,-32 -18,-71 -10,-107 z"
         id="path2157"
         inkscape:connector-curvature="0"
         style="fill:#a52d3d;fill-rule:nonzero" />
      <path
         class="fil2"
         d="m 4635,6265 c -8,28 -29,49 -36,77 17,5 35,9 52,13 1,-5 3,-9 5,-13 11,-29 27,-67 50,-95 -24,6 -48,12 -72,18 z"
         id="path2159"
         inkscape:connector-curvature="0"
         style="fill:#ffffff;fill-rule:nonzero" />
      <path
         class="fil9"
         d="m 5361,6077 c -6,-89 -34,-171 -84,-233 12,57 -2,124 -32,168 -56,82 -156,158 -260,154 52,33 81,112 73,170 -4,31 -16,63 -35,92 190,12 350,-161 337,-351 z m -231,268 v 0 c -3,9 -4,18 -10,26 -4,6 -15,5 -15,-4 0,-9 3,-18 6,-27 4,-12 23,-7 19,5 z m 51,-21 v 0 c -1,4 -2,8 -3,11 -2,8 -4,16 -7,24 -4,9 -19,9 -18,-2 0,-10 2,-20 4,-30 2,-9 5,-15 10,-20 6,-4 13,2 13,8 0,-3 0,4 1,3 0,2 0,4 -1,6 z"
         id="path2161"
         inkscape:connector-curvature="0"
         style="fill:#2d4959;fill-rule:nonzero" />
      <path
         class="fil2"
         d="m 3702,6095 c -17,-6 -33,-10 -50,-13 -5,-1 -11,-2 -16,-2 -68,20 -119,68 -139,141 -22,76 -19,164 44,220 23,1 47,1 69,0 107,-63 189,-245 94,-345 z"
         id="path2163"
         inkscape:connector-curvature="0"
         style="fill:#ffffff;fill-rule:nonzero" />
      <path
         class="fil11"
         d="m 4757,6425 c -45,-21 -66,-58 -68,-99 -29,54 -42,115 -6,167 54,11 110,14 166,9 44,-39 85,-74 106,-134 10,-30 17,-60 16,-89 -18,96 -107,195 -213,146 z"
         id="path2165"
         inkscape:connector-curvature="0"
         style="fill:#c3cccd;fill-rule:nonzero" />
      <path
         class="fil11"
         d="m 3548,6323 c -32,-23 -50,-52 -57,-84 -16,72 -9,150 49,202 23,1 47,1 69,0 36,-21 69,-56 94,-96 -50,17 -104,15 -154,-21 z"
         id="path2167"
         inkscape:connector-curvature="0"
         style="fill:#c3cccd;fill-rule:nonzero" />
      <path
         class="fil2"
         d="m 3742,6322 c 10,-1 19,-3 29,-3 1,-20 6,-39 9,-58 3,-17 5,-34 8,-50 -7,-2 -14,-3 -20,-6 0,25 -4,50 -11,74 -4,13 -9,28 -15,44 z"
         id="path2169"
         inkscape:connector-curvature="0"
         style="fill:#ffffff;fill-rule:nonzero" />
      <path
         class="fil11"
         d="m 3468,6213 c 20,-56 56,-111 107,-140 -1,0 -1,0 -2,0 -65,24 -118,57 -151,125 -31,64 -39,128 -16,195 17,23 48,36 84,42 -47,-54 -44,-163 -23,-222 z"
         id="path2171"
         inkscape:connector-curvature="0"
         style="fill:#c3cccd;fill-rule:nonzero" />
      <path
         class="fil2"
         d="m 3830,6316 c 0,-14 4,-28 6,-42 3,-17 6,-35 8,-53 -2,0 -4,-1 -6,-1 -10,-2 -20,-3 -31,-5 2,33 -6,71 -14,103 12,-1 24,-1 36,-2 z"
         id="path2173"
         inkscape:connector-curvature="0"
         style="fill:#ffffff;fill-rule:nonzero" />
      <path
         class="fil2"
         d="m 4328,5996 c -124,67 -247,137 -376,193 -3,35 -8,69 0,104 10,45 28,68 65,93 1,0 1,1 2,2 2,0 3,-1 5,-1 128,-32 256,-64 384,-96 -81,-54 -108,-200 -80,-293 z"
         id="path2175"
         inkscape:connector-curvature="0"
         style="fill:#ffffff;fill-rule:nonzero" />
      <path
         class="fil11"
         d="m 4339,6194 c -17,9 -34,18 -52,25 -32,13 -65,25 -99,32 -23,5 -58,15 -81,7 -20,-7 -39,-37 -59,-25 -11,7 -28,25 -42,23 -31,-4 -37,-41 -41,-74 -4,2 -9,4 -13,6 -3,35 -8,69 0,104 10,45 28,68 65,93 1,0 1,1 2,2 2,0 3,-1 5,-1 128,-32 256,-64 384,-96 -31,-21 -54,-55 -69,-94 z"
         id="path2177"
         inkscape:connector-curvature="0"
         style="fill:#c3cccd;fill-rule:nonzero" />
      <path
         class="fil11"
         d="m 4440,6380 c -6,-23 -3,-50 10,-69 -58,15 -116,31 -174,47 55,4 109,13 163,22 z"
         id="path2179"
         inkscape:connector-curvature="0"
         style="fill:#c3cccd;fill-rule:nonzero" />
      <path
         class="fil8"
         d="m 4430,4484 c 23,-8 64,-23 92,-17 2,-10 2,-20 0,-30 -71,29 -148,38 -224,38 21,22 36,50 63,66 12,-28 41,-47 69,-57 z"
         id="path2181"
         inkscape:connector-curvature="0"
         style="fill:#a52d3d;fill-rule:nonzero" />
      <path
         class="fil7"
         d="m 4378,5969 c -9,5 -18,9 -26,14 -28,109 5,219 85,297 0,0 0,1 1,1 8,-2 16,-4 24,-6 -86,-62 -116,-206 -83,-306 z"
         id="path2183"
         inkscape:connector-curvature="0"
         style="fill:#e94256;fill-rule:nonzero" />
      <path
         class="fil2"
         d="m 3853,6315 c 9,0 18,0 27,0 1,-29 1,-58 2,-87 -6,-1 -13,-2 -19,-3 -1,19 -2,37 -5,55 -2,12 -3,24 -5,36 z"
         id="path2185"
         inkscape:connector-curvature="0"
         style="fill:#ffffff;fill-rule:nonzero" />
      <path
         class="fil8"
         d="m 3940,6340 c -65,11 -143,16 -208,5 -16,34 -36,69 -63,90 3,0 6,0 8,-1 103,-7 206,-19 307,-40 -20,-11 -34,-31 -44,-54 z"
         id="path2187"
         inkscape:connector-curvature="0"
         style="fill:#a52d3d;fill-rule:nonzero" />
      <path
         class="fil12"
         d="m 3634,5376 c -27,3 -55,4 -77,3 12,12 24,23 36,34 10,-9 21,-17 31,-27 4,-3 7,-7 11,-11 z"
         id="path2189"
         inkscape:connector-curvature="0"
         style="fill:#dd8762;fill-rule:nonzero" />
      <path
         class="fil9"
         d="m 3630,5342 c 11,-7 25,-9 35,-16 6,-4 12,-10 18,-15 26,-36 17,-81 15,-126 -4,-75 -9,-149 -13,-224 -5,-90 17,-209 -35,-289 -73,-3 -175,9 -216,60 -1,17 -3,35 -2,53 0,7 1,15 1,22 1,8 2,16 3,24 0,1 0,2 0,3 0,3 0,7 0,10 21,-1 42,2 58,14 18,13 24,52 3,65 26,19 27,52 -1,74 0,0 -1,0 -1,1 24,26 19,67 -8,90 9,6 17,15 20,27 10,39 -32,64 -70,73 5,21 6,42 7,63 1,12 4,25 4,38 27,59 108,67 183,55 z m -88,-540 v 0 c -26,2 -61,-22 -54,-52 4,-15 19,-28 34,-30 11,-2 31,-1 39,9 6,4 11,10 15,18 12,26 -7,53 -35,55 z"
         id="path2191"
         inkscape:connector-curvature="0"
         style="fill:#2d4959;fill-rule:nonzero" />
      <path
         class="fil10"
         d="m 3522,4746 c 0,0 -1,0 -1,0 -5,3 -10,7 -8,12 4,14 21,20 33,16 10,-4 11,-11 5,-20 -6,-9 -19,-12 -29,-8 z"
         id="path2193"
         inkscape:connector-curvature="0"
         style="fill:#182f3a;fill-rule:nonzero" />
      <path
         class="fil2"
         d="m 4490,5627 c 58,-40 104,-89 156,-136 -19,-47 -39,-94 -68,-137 -28,-43 -62,-79 -96,-116 -14,13 -31,23 -46,35 -2,1 -3,2 -5,3 11,19 21,38 32,56 5,9 -8,16 -14,8 -59,-77 -114,-158 -167,-240 -24,67 -98,130 -165,151 64,86 104,194 159,285 46,77 120,155 214,91 z m -41,-58 v 0 c 4,-11 20,-7 18,5 -2,10 -3,22 -11,30 -4,4 -12,2 -13,-3 -2,-11 2,-21 6,-31 z m -43,-6 v 0 c 1,-12 18,-12 18,0 0,9 0,19 -7,27 -5,5 -13,1 -14,-6 0,-7 2,-14 3,-21 z"
         id="path2195"
         inkscape:connector-curvature="0"
         style="fill:#ffffff;fill-rule:nonzero" />
      <path
         class="fil13"
         d="m 3475,5113 c -24,-19 -64,-17 -89,-2 -23,14 -42,40 -34,68 8,29 32,38 60,40 0,-10 1,-19 3,-29 -4,0 -8,1 -11,0 -12,0 -14,-16 -3,-20 14,-5 106,-30 74,-57 z"
         id="path2197"
         inkscape:connector-curvature="0"
         style="fill:#f9a870;fill-rule:nonzero" />
      <path
         class="fil7"
         d="m 4305,5874 c 13,11 25,23 39,32 13,8 31,13 43,23 86,-44 172,-86 261,-123 159,-67 395,-157 563,-66 51,28 94,71 126,123 -12,-84 -16,-169 -23,-253 -56,32 -122,45 -184,58 -77,16 -155,29 -234,34 -178,13 -364,2 -541,-20 -8,-1 -11,-8 -8,-14 0,0 -1,-1 -1,-1 2,31 -4,64 -10,94 -8,35 -14,73 -32,105 0,0 0,1 1,1 1,2 1,4 0,6 z"
         id="path2199"
         inkscape:connector-curvature="0"
         style="fill:#e94256;fill-rule:nonzero" />
      <path
         class="fil2"
         d="m 4100,5282 c -33,43 -99,99 -155,90 -55,-9 -122,-49 -157,-96 -1,2 -1,3 -2,5 -4,20 -13,38 -27,47 -6,6 -13,12 -20,15 -19,14 -44,22 -71,28 -6,14 -20,25 -31,35 -9,8 -18,16 -28,22 69,65 139,125 228,166 81,38 170,55 253,9 48,-26 91,-57 134,-90 -8,-14 -15,-27 -22,-41 -34,-62 -70,-126 -101,-191 z"
         id="path2201"
         inkscape:connector-curvature="0"
         style="fill:#ffffff;fill-rule:nonzero" />
      <path
         class="fil11"
         d="m 4578,5355 c -16,-24 -33,-45 -51,-66 2,4 4,8 6,12 16,35 28,79 21,118 -15,78 -91,134 -161,82 -36,-26 -62,-68 -85,-105 -21,-34 -57,-85 -54,-128 3,-35 18,-68 20,-104 0,-3 1,-25 1,-45 -29,60 -96,114 -158,132 64,86 104,194 159,285 46,77 120,155 214,91 58,-40 104,-89 156,-136 -19,-47 -39,-94 -68,-137 z m -162,235 v 0 c -5,5 -13,1 -14,-6 0,-7 2,-14 3,-21 1,-12 18,-12 18,0 0,9 0,19 -7,27 z m 50,-16 v 0 c -2,10 -3,22 -11,30 -4,4 -12,2 -13,-3 -2,-11 2,-21 6,-31 4,-11 20,-7 18,5 z"
         id="path2203"
         inkscape:connector-curvature="0"
         style="fill:#c3cccd;fill-rule:nonzero" />
      <path
         class="fil11"
         d="m 4201,5472 c -23,-43 -48,-86 -71,-130 4,93 -80,199 -181,170 -53,-15 -108,-64 -138,-109 -15,-22 -28,-47 -30,-74 0,-8 1,-22 2,-36 -5,15 -13,28 -24,35 -6,6 -13,12 -20,15 -19,14 -44,22 -71,28 -6,14 -20,25 -31,35 -9,8 -18,16 -28,22 69,65 139,125 228,166 81,38 170,55 253,9 48,-26 91,-57 134,-90 -8,-14 -15,-27 -22,-41 z"
         id="path2205"
         inkscape:connector-curvature="0"
         style="fill:#c3cccd;fill-rule:nonzero" />
      <path
         class="fil13"
         d="m 3468,5079 c 10,-19 22,-40 8,-60 -5,-8 -14,-12 -24,-12 -23,-1 -47,9 -66,21 -25,15 -86,62 -37,81 12,-14 28,-24 46,-30 19,-6 49,-8 74,0 z"
         id="path2207"
         inkscape:connector-curvature="0"
         style="fill:#f9a870;fill-rule:nonzero" />
      <path
         class="fil7"
         d="m 4514,4492 c -20,4 -43,2 -62,9 -30,10 -55,24 -72,49 51,18 111,-12 134,-58 z"
         id="path2209"
         inkscape:connector-curvature="0"
         style="fill:#e94256;fill-rule:nonzero" />
      <path
         class="fil7"
         d="m 4355,5099 c -5,-62 -10,-125 -7,-188 1,-11 15,-10 16,0 7,55 11,109 16,164 4,43 13,90 10,134 8,14 16,27 24,41 13,-14 30,-24 47,-32 -2,-3 -5,-5 -7,-8 -1,-1 -2,-3 -3,-5 -3,-5 -3,-11 3,-15 137,-121 222,-291 347,-424 6,-6 18,2 12,10 -105,141 -200,306 -331,426 100,62 181,195 202,312 56,-70 119,-134 176,-204 69,-84 120,-178 184,-264 7,-9 21,-4 19,8 -14,64 -58,126 -101,181 48,-6 94,-14 141,-31 46,-16 85,-42 129,-60 -5,-19 -10,-38 -15,-58 -33,-124 -65,-250 -159,-345 -83,-84 -175,-124 -289,-133 0,2 0,4 0,6 0,1 0,2 0,3 -7,78 -93,175 -175,180 -78,5 -126,-83 -60,-134 0,-1 0,-2 -1,-4 -1,0 -1,1 -2,1 -8,2 -17,4 -25,6 -27,10 -55,16 -84,19 -51,14 -97,38 -122,92 -30,65 -40,136 -54,206 38,56 74,112 109,170 -1,-19 -1,-37 -2,-55 z"
         id="path2211"
         inkscape:connector-curvature="0"
         style="fill:#e94256;fill-rule:nonzero" />
      <path
         class="fil8"
         d="m 5314,5610 c -56,32 -122,45 -184,58 -77,16 -155,29 -234,34 -21,2 -42,3 -64,4 -6,13 -14,26 -22,38 134,-43 283,-67 400,-4 51,28 94,71 126,123 -12,-84 -16,-169 -23,-253 z"
         id="path2213"
         inkscape:connector-curvature="0"
         style="fill:#a52d3d;fill-rule:nonzero" />
      <path
         class="fil8"
         d="m 4572,4810 c 88,1 178,-37 252,-82 39,-24 68,-52 100,-82 -47,-21 -97,-33 -153,-37 0,2 0,4 0,6 0,1 0,2 0,3 -7,78 -93,175 -175,180 -78,5 -126,-83 -60,-134 0,-1 0,-2 -1,-4 -1,0 -1,1 -2,1 -8,2 -17,4 -25,6 -27,10 -55,16 -84,19 -43,12 -82,31 -108,68 63,48 207,54 255,55 z"
         id="path2215"
         inkscape:connector-curvature="0"
         style="fill:#a52d3d;fill-rule:nonzero" />
      <path
         class="fil8"
         d="m 4537,5106 c -14,-9 -29,-18 -35,-24 -54,-47 -89,-109 -136,-162 6,52 11,104 15,156 4,43 13,90 10,134 8,14 16,27 24,41 13,-14 30,-24 47,-32 -2,-3 -5,-5 -7,-8 -1,-1 -2,-3 -3,-5 -3,-5 -3,-11 3,-15 29,-26 56,-54 82,-84 z"
         id="path2217"
         inkscape:connector-curvature="0"
         style="fill:#a52d3d;fill-rule:nonzero" />
      <path
         class="fil8"
         d="m 4914,5165 c -38,37 -77,75 -122,104 -26,17 -74,46 -103,17 -15,-14 -16,-32 -18,-52 -3,-43 -37,-74 -81,-75 -14,0 -26,-5 -24,-22 0,-4 -2,-8 -7,-12 -24,28 -49,54 -76,78 100,62 181,195 202,312 56,-70 119,-134 176,-204 63,-78 112,-164 169,-244 -43,16 -93,75 -117,98 z"
         id="path2219"
         inkscape:connector-curvature="0"
         style="fill:#a52d3d;fill-rule:nonzero" />
      <path
         class="fil8"
         d="m 5086,5081 c -7,-10 -15,-15 -24,-18 -16,61 -57,119 -99,172 48,-6 94,-14 141,-31 46,-16 85,-42 129,-60 -1,-6 -3,-12 -5,-18 -51,-2 -112,-1 -142,-46 z"
         id="path2221"
         inkscape:connector-curvature="0"
         style="fill:#a52d3d;fill-rule:nonzero" />
      <path
         class="fil13"
         d="m 4412,4656 c 5,0 11,-1 16,-2 12,-3 23,-5 35,-7 61,-16 112,-49 169,-79 9,-5 18,6 11,14 -25,25 -54,46 -86,63 3,8 4,16 6,25 2,12 6,25 -1,36 -3,5 -11,7 -16,2 -3,-4 -5,-8 -7,-12 -13,30 -16,65 29,73 29,5 57,-5 80,-21 46,-31 80,-74 93,-129 -6,-12 -6,-28 -8,-40 -2,-16 -5,-32 -2,-48 -2,-4 -2,-8 2,-12 26,-24 59,-39 85,-65 25,-25 48,-52 68,-81 1,-2 3,-3 4,-4 3,-3 8,-5 13,-4 93,25 164,-82 152,-167 -12,-90 -131,-115 -173,-27 v 0 c 0,11 -17,18 -22,6 -19,-39 -22,-91 -26,-134 -3,-37 -5,-74 3,-110 -139,31 -324,-52 -387,-182 -5,57 -14,113 -32,167 -3,8 -10,12 -19,11 -97,-19 -171,-115 -194,-216 -93,55 -123,164 -131,268 -8,96 -10,200 6,295 18,109 57,232 143,307 51,45 118,75 188,70 z m 587,-491 v 0 c 10,3 9,20 -3,20 -25,-1 -39,11 -47,28 12,2 23,7 33,15 10,8 24,22 19,35 -2,5 -7,9 -12,7 -10,-3 -15,-15 -23,-22 -7,-6 -16,-11 -24,-15 -5,18 -8,38 -12,54 -2,9 -15,8 -18,0 -18,-49 26,-142 87,-122 z m -450,60 v 0 c -11,5 -27,0 -29,-16 -1,-5 -1,-11 -1,-16 -3,-14 -4,-29 -3,-43 0,-5 -1,-10 -1,-14 0,-4 2,-8 4,-11 4,-18 30,-15 35,1 1,2 3,4 3,8 5,24 8,49 8,74 0,10 -8,17 -17,19 z m 154,14 v 0 c -8,7 -17,13 -26,19 -8,5 -18,-7 -10,-13 9,-7 17,-16 28,-19 7,-2 13,7 7,13 z m -85,1 v 0 c 13,-10 25,-21 41,-26 8,-2 13,8 8,13 -11,11 -24,20 -38,26 -8,4 -19,-7 -10,-14 z m -155,-278 v 0 c 11,-76 118,-48 135,10 2,8 -8,18 -16,12 -16,-12 -32,-29 -52,-33 -22,-5 -35,8 -51,22 -8,7 -18,0 -17,-10 z m -371,341 v 0 c 7,-7 16,-13 26,-13 6,0 11,9 6,13 -6,5 -13,8 -18,13 -9,8 -22,-5 -13,-13 z m 66,9 v 0 c -3,9 -14,14 -23,16 -8,2 -16,-9 -9,-15 6,-5 14,-10 21,-11 6,-1 12,4 10,10 z m 9,-72 v 0 c -11,5 -27,0 -29,-16 -1,-5 -1,-11 -1,-16 -3,-14 -4,-28 -3,-43 0,-5 -1,-10 -1,-14 0,-4 2,-8 4,-11 4,-18 30,-15 35,1 1,2 3,4 3,8 5,24 8,49 8,74 0,11 -8,17 -17,19 z m 44,-250 v 0 c -16,-3 -36,-12 -53,-8 -21,5 -28,18 -35,37 -3,9 -17,10 -20,0 -19,-66 88,-96 119,-45 5,9 -3,17 -12,16 z m 32,336 v 0 c 25,-24 70,-15 96,3 8,6 3,21 -7,17 -13,-5 -29,-10 -43,-10 -6,0 -11,0 -17,2 -4,1 -9,3 -10,4 -1,1 -2,1 -2,2 0,0 0,0 0,0 0,0 0,2 0,1 0,0 0,2 0,2 1,2 2,3 3,5 11,11 27,15 39,25 6,5 1,15 -6,15 -27,1 -83,-36 -52,-66 z m 26,154 v 0 c -2,-2 -2,-4 -3,-5 -6,0 -12,0 -18,-1 -13,-1 -13,-19 0,-19 98,-5 188,-10 280,-47 7,-3 14,3 16,9 26,81 -35,146 -111,165 -78,20 -119,-55 -164,-102 z"
         id="path2223"
         inkscape:connector-curvature="0"
         style="fill:#f9a870;fill-rule:nonzero" />
      <path
         class="fil13"
         d="m 3389,4918 c 27,-12 60,-15 89,-5 1,-15 14,-31 -7,-38 -21,-7 -46,-7 -68,-3 -24,4 -52,12 -69,29 -18,19 -8,32 3,50 16,-14 34,-25 52,-33 z"
         id="path2225"
         inkscape:connector-curvature="0"
         style="fill:#f9a870;fill-rule:nonzero" />
      <path
         class="fil13"
         d="m 3380,5000 c 28,-16 71,-33 102,-14 0,0 0,0 0,0 0,0 0,-1 0,-1 5,-12 18,-30 4,-41 -10,-8 -25,-12 -38,-13 -20,-1 -37,2 -55,12 -20,11 -41,23 -56,40 -18,20 -15,31 9,40 11,-9 22,-17 34,-23 z"
         id="path2227"
         inkscape:connector-curvature="0"
         style="fill:#f9a870;fill-rule:nonzero" />
      <path
         class="fil10"
         d="m 3719,5016 c 5,87 19,178 11,264 -1,9 -3,18 -6,27 3,-2 6,-4 9,-6 2,-2 5,-4 7,-5 5,-8 11,-15 14,-24 1,-4 2,-7 2,-11 0,-2 1,-4 1,-5 0,-1 0,-2 0,-3 0,-3 1,-6 1,-8 -1,-16 0,-32 -1,-48 -1,-15 -1,-30 -1,-44 -8,-68 -9,-137 -13,-205 -4,-64 -12,-127 -19,-190 -2,-6 -2,-13 -4,-18 -1,-3 -1,-7 -2,-10 -3,-9 -5,-19 -8,-29 -2,-7 -5,-14 -10,-19 -1,-1 -3,-2 -4,-3 -4,-1 -9,-1 -14,-2 19,27 26,63 29,97 6,81 5,163 9,245 z"
         id="path2229"
         inkscape:connector-curvature="0"
         style="fill:#182f3a;fill-rule:nonzero" />
      <path
         class="fil13"
         d="m 3911,4874 c 1,0 1,0 2,0 2,-1 5,-1 7,-2 12,-4 23,-10 36,-7 7,2 7,10 4,14 -9,11 -26,13 -39,17 -5,1 -11,3 -16,4 -17,7 -37,14 -45,31 -6,13 -2,27 2,40 3,3 5,7 7,12 1,1 2,2 2,4 0,1 0,2 0,2 1,4 2,9 1,13 0,9 -1,19 -2,29 0,11 2,22 5,32 15,29 0,82 33,98 19,9 50,11 66,-5 9,-9 13,-21 8,-33 -7,-18 -26,-8 -36,-5 -9,3 -13,-10 -6,-15 2,-1 4,-2 6,-3 1,-1 1,-2 3,-3 12,-8 28,-9 42,-4 12,4 24,16 22,29 10,20 18,41 31,58 14,20 36,29 53,45 1,1 2,2 2,4 2,2 3,4 5,6 36,-14 69,-34 97,-61 29,-28 46,-60 67,-93 0,0 1,-1 1,-1 -27,-42 -54,-84 -80,-125 -54,-84 -100,-144 -210,-140 -70,2 -141,2 -211,-4 2,16 3,32 4,48 46,8 94,3 139,16 z"
         id="path2231"
         inkscape:connector-curvature="0"
         style="fill:#f9a870;fill-rule:nonzero" />
      <path
         class="fil2"
         d="m 3931,6314 c -7,-28 -10,-58 -8,-85 -6,1 -13,1 -19,0 5,27 5,58 1,85 9,0 18,0 26,0 z"
         id="path2233"
         inkscape:connector-curvature="0"
         style="fill:#ffffff;fill-rule:nonzero" />
      <path
         class="fil2"
         d="m 4552,6301 c -6,7 -11,15 -14,24 13,4 26,8 40,11 2,-22 11,-46 26,-64 -11,3 -22,5 -33,8 -5,7 -13,13 -19,20 z"
         id="path2235"
         inkscape:connector-curvature="0"
         style="fill:#ffffff;fill-rule:nonzero" />
      <path
         class="fil11"
         d="m 4141,5987 c -11,-7 -23,-14 -34,-21 -1,1 -1,1 -2,1 -44,17 -81,49 -102,91 -15,30 -18,61 -26,92 33,-21 67,-41 102,-60 0,-1 0,-1 0,-2 -3,-20 12,-45 23,-62 11,-16 23,-29 39,-39 z"
         id="path2237"
         inkscape:connector-curvature="0"
         style="fill:#c3cccd;fill-rule:nonzero" />
      <path
         class="fil2"
         d="m 4531,6290 c -11,3 -23,6 -34,9 -1,0 -1,0 -2,0 0,2 -1,4 -2,6 -1,2 -3,3 -4,5 10,3 20,6 30,9 2,-10 6,-20 12,-29 z"
         id="path2239"
         inkscape:connector-curvature="0"
         style="fill:#ffffff;fill-rule:nonzero" />
      <path
         class="fil13"
         d="m 3559,6044 c 54,-17 125,7 173,26 70,28 139,71 212,86 -5,-41 15,-93 36,-125 25,-39 57,-68 100,-83 -17,-11 -33,-22 -49,-31 -62,-36 -124,-69 -190,-89 -57,-11 -114,-21 -170,-26 -101,-9 -216,-5 -247,115 -13,52 -22,145 10,196 34,-39 78,-67 125,-69 z"
         id="path2241"
         inkscape:connector-curvature="0"
         style="fill:#f9a870;fill-rule:nonzero" />
      <path
         class="fil9"
         d="m 4235,6007 c 24,-12 48,-25 72,-37 14,-7 28,-15 43,-22 -12,-6 -24,-14 -32,-20 -16,-11 -38,-28 -41,-49 -1,-2 -2,-4 -2,-7 0,-1 0,-1 0,-2 -7,-4 -15,-5 -24,-3 -11,3 -22,6 -33,9 -3,1 -6,0 -8,-2 -81,4 -162,-7 -243,-22 12,6 25,13 37,19 78,42 157,86 231,135 z"
         id="path2243"
         inkscape:connector-curvature="0"
         style="fill:#2d4959;fill-rule:nonzero" />
      <path
         class="fil8"
         d="m 3790,6132 c -15,-7 -31,-14 -46,-20 14,21 21,46 24,72 26,-2 54,5 79,9 26,4 54,5 80,13 1,-8 3,-15 6,-22 -48,1 -101,-34 -142,-52 z"
         id="path2245"
         inkscape:connector-curvature="0"
         style="fill:#a52d3d;fill-rule:nonzero" />
      <path
         class="fil11"
         d="m 4403,5956 c -37,108 -5,233 79,310 1,1 2,2 2,3 14,-4 28,-7 42,-11 -91,-69 -101,-228 -67,-331 -19,9 -38,19 -57,29 z"
         id="path2247"
         inkscape:connector-curvature="0"
         style="fill:#c3cccd;fill-rule:nonzero" />
      <path
         class="fil13"
         d="m 4998,6140 c 84,-14 164,-56 213,-128 58,-86 47,-156 -5,-229 -2,-2 -5,-4 -7,-6 -2,-2 -5,-4 -7,-6 -45,-24 -99,-37 -161,-34 -193,10 -378,94 -548,178 -32,97 -19,269 76,328 2,1 4,3 5,5 3,-1 5,-1 8,-2 160,-43 333,-78 479,-159 10,-6 18,9 9,15 -20,14 -40,26 -62,38 z m 52,-312 v 0 c -5,1 -9,1 -14,1 -11,0 -11,-17 0,-17 5,0 10,0 14,1 7,2 7,12 0,15 z m -17,-40 v 0 c -11,2 -17,-15 -5,-18 14,-3 31,-6 43,2 6,3 5,14 -2,15 -12,2 -24,-1 -36,1 z"
         id="path2249"
         inkscape:connector-curvature="0"
         style="fill:#f9a870;fill-rule:nonzero" />
      <path
         class="fil12"
         d="m 5056,4200 c -12,-90 -131,-115 -173,-27 v 0 c 0,11 -17,18 -22,6 -19,-39 -22,-91 -26,-134 -3,-37 -5,-74 3,-110 -139,31 -324,-52 -387,-182 -5,57 -14,113 -32,167 -3,8 -10,12 -19,11 -97,-19 -171,-115 -194,-216 -65,38 -99,103 -116,173 17,-20 34,-39 52,-57 2,-2 5,-3 7,-2 71,29 126,87 198,111 39,13 78,15 117,16 16,-66 112,-41 132,12 87,27 144,110 167,196 47,176 -34,402 -204,480 -1,0 -1,1 -2,1 3,8 4,16 6,25 2,12 6,25 -1,36 -3,5 -11,7 -16,2 -3,-4 -5,-8 -7,-12 -13,30 -16,65 29,73 29,5 57,-5 80,-21 46,-31 80,-74 93,-129 -6,-12 -6,-28 -8,-40 -2,-16 -5,-32 -2,-48 -2,-4 -2,-8 2,-12 26,-24 59,-39 85,-65 25,-25 48,-52 68,-81 1,-2 3,-3 4,-4 3,-3 8,-5 13,-4 93,25 164,-82 152,-167 z m -60,-14 v 0 c -25,-1 -39,11 -47,28 12,2 23,7 33,15 10,8 24,22 19,35 -2,5 -7,9 -12,7 -10,-3 -15,-15 -23,-22 -7,-6 -16,-11 -24,-15 -5,18 -8,38 -12,54 -2,9 -15,8 -18,0 -18,-49 26,-142 87,-122 10,3 9,20 -3,20 z"
         id="path2251"
         inkscape:connector-curvature="0"
         style="fill:#dd8762;fill-rule:nonzero" />
      <path
         class="fil13"
         d="m 4499,3957 c 17,0 34,1 51,3 -6,-4 -13,-7 -20,-8 -12,-3 -22,0 -31,6 z"
         id="path2253"
         inkscape:connector-curvature="0"
         style="fill:#f9a870;fill-rule:nonzero" />
      <path
         class="fil12"
         d="m 4213,5114 c -50,25 -110,22 -158,-7 -34,-21 -63,-85 -108,-77 -25,4 -44,0 -66,-10 -3,-1 -6,-3 -10,-5 0,5 -1,10 -1,15 0,11 2,22 5,32 15,29 0,82 33,98 19,9 50,11 66,-5 9,-9 13,-21 8,-33 -7,-18 -26,-8 -36,-5 -9,3 -13,-10 -6,-15 2,-1 4,-2 6,-3 1,-1 1,-2 3,-3 12,-8 28,-9 42,-4 12,4 24,16 22,29 10,20 18,41 31,58 14,20 36,29 53,45 1,1 2,2 2,4 2,2 3,4 5,6 36,-14 69,-34 97,-61 29,-28 46,-60 67,-93 0,0 1,-1 1,-1 -2,-3 -4,-6 -6,-9 -12,18 -28,34 -49,44 z"
         id="path2255"
         inkscape:connector-curvature="0"
         style="fill:#dd8762;fill-rule:nonzero" />
      <path
         class="fil12"
         d="m 3932,6026 c -31,23 -63,42 -102,48 -45,7 -96,-5 -137,-23 -73,-31 -170,-101 -189,-183 -4,-18 -3,-36 3,-52 -39,17 -69,47 -83,101 -13,52 -22,145 10,196 34,-39 78,-67 125,-69 54,-17 125,7 173,26 70,28 139,71 212,86 -5,-41 15,-93 36,-125 25,-39 57,-68 100,-83 -6,-4 -12,-8 -18,-12 -47,20 -90,59 -131,89 z"
         id="path2257"
         inkscape:connector-curvature="0"
         style="fill:#dd8762;fill-rule:nonzero" />
      <path
         class="fil12"
         d="m 5234,5833 c -6,122 -205,210 -316,244 -87,27 -189,55 -281,37 -55,-11 -113,-40 -131,-98 -9,-30 -14,-75 -2,-110 -7,3 -14,7 -21,10 -32,97 -19,269 76,328 2,1 4,3 5,5 3,-1 5,-1 8,-2 160,-43 333,-78 479,-159 10,-6 18,9 9,15 -20,14 -40,26 -62,38 84,-14 164,-56 213,-128 45,-67 49,-124 23,-180 z"
         id="path2259"
         inkscape:connector-curvature="0"
         style="fill:#dd8762;fill-rule:nonzero" />
      <path
         class="fil11"
         d="m 4180,6009 c 1,2 1,5 -1,7 -6,9 -11,18 -17,28 15,-8 30,-15 44,-23 -9,-4 -18,-8 -27,-12 z"
         id="path2261"
         inkscape:connector-curvature="0"
         style="fill:#c3cccd;fill-rule:nonzero" />
      <path
         class="fil7"
         d="m 4135,6059 c 3,-20 18,-38 31,-53 1,-1 3,-2 4,-2 -4,-2 -8,-4 -12,-6 0,1 -1,1 -1,2 -17,13 -31,30 -41,49 -5,9 -8,19 -13,28 11,-6 21,-11 32,-17 0,0 0,0 0,0 z"
         id="path2263"
         inkscape:connector-curvature="0"
         style="fill:#e94256;fill-rule:nonzero" />
      <g
         id="g2309">
        <path
           class="fil3"
           d="m 4118,4290 c -11,0 -19,6 -26,13 -9,8 5,22 13,13 6,-5 12,-9 18,-13 6,-4 1,-14 -6,-13 z"
           id="path2265"
           inkscape:connector-curvature="0"
           style="fill:#231608;fill-rule:nonzero" />
        <path
           class="fil3"
           d="m 4996,4186 c 12,0 13,-16 3,-20 -62,-20 -105,73 -87,122 3,8 15,9 18,0 4,-16 7,-36 12,-54 9,4 17,9 24,15 8,7 13,19 23,22 5,2 11,-2 12,-7 4,-13 -10,-28 -19,-35 -10,-8 -21,-13 -33,-15 9,-17 22,-28 47,-28 z"
           id="path2267"
           inkscape:connector-curvature="0"
           style="fill:#231608;fill-rule:nonzero" />
        <path
           class="fil3"
           d="m 4223,3975 c -31,-51 -139,-21 -119,45 3,10 16,9 20,0 7,-19 14,-32 35,-37 17,-4 36,4 53,8 9,2 17,-7 12,-16 z"
           id="path2269"
           inkscape:connector-curvature="0"
           style="fill:#231608;fill-rule:nonzero" />
        <path
           class="fil3"
           d="m 4598,3972 c -17,-58 -124,-86 -135,-10 -1,10 9,17 17,10 15,-14 29,-26 51,-22 20,4 36,21 52,33 8,6 18,-4 16,-12 z"
           id="path2271"
           inkscape:connector-curvature="0"
           style="fill:#231608;fill-rule:nonzero" />
        <path
           class="fil3"
           d="m 4565,4207 c 0,-25 -3,-49 -8,-74 -1,-3 -2,-6 -3,-8 -5,-16 -31,-19 -35,-1 -2,3 -4,6 -4,11 0,5 0,10 1,14 -1,14 0,29 3,43 1,5 1,11 1,16 2,16 18,22 29,16 9,-1 17,-8 17,-19 z"
           id="path2273"
           inkscape:connector-curvature="0"
           style="fill:#231608;fill-rule:nonzero" />
        <path
           class="fil3"
           d="m 4184,4222 c 0,-25 -3,-49 -8,-74 -1,-3 -2,-6 -3,-8 -5,-16 -31,-19 -35,-1 -2,3 -4,7 -4,11 0,5 0,10 1,14 -1,14 0,29 3,43 1,5 1,11 1,16 2,16 18,22 29,16 9,-1 17,-8 17,-19 z"
           id="path2275"
           inkscape:connector-curvature="0"
           style="fill:#231608;fill-rule:nonzero" />
        <path
           class="fil3"
           d="m 4338,4329 c -25,-18 -70,-27 -96,-3 -31,30 25,67 52,66 7,0 12,-10 6,-15 -12,-11 -28,-14 -39,-25 -1,-1 -2,-3 -3,-5 0,0 0,-1 0,-2 0,1 0,-1 0,-1 0,0 0,0 0,0 1,-1 2,-2 2,-2 1,-1 6,-3 10,-4 5,-1 11,-2 17,-2 14,0 30,5 43,10 11,4 15,-11 7,-17 z"
           id="path2277"
           inkscape:connector-curvature="0"
           style="fill:#231608;fill-rule:nonzero" />
        <path
           class="fil3"
           d="m 4544,4417 c -2,-6 -9,-12 -16,-9 -92,36 -182,42 -280,47 -13,1 -13,19 0,19 6,0 12,0 18,1 0,2 1,4 3,5 45,47 86,122 164,102 76,-19 137,-84 111,-165 z m -245,58 v 0 c 77,0 153,-9 224,-38 2,10 1,20 0,30 -28,-6 -69,8 -92,17 -28,10 -58,29 -69,57 -26,-16 -42,-45 -63,-66 z m 81,75 v 0 c 17,-25 42,-39 72,-49 19,-6 42,-5 62,-9 -23,46 -83,76 -134,58 z"
           id="path2279"
           inkscape:connector-curvature="0"
           style="fill:#231608;fill-rule:nonzero" />
        <path
           class="fil3"
           d="m 4659,4214 c -16,5 -28,16 -41,26 -8,7 2,17 10,14 14,-6 27,-15 38,-26 5,-6 0,-16 -8,-13 z"
           id="path2281"
           inkscape:connector-curvature="0"
           style="fill:#231608;fill-rule:nonzero" />
        <path
           class="fil3"
           d="m 4696,4227 c -12,3 -19,12 -28,19 -8,6 2,18 10,13 9,-5 18,-12 26,-19 6,-5 0,-14 -7,-13 z"
           id="path2283"
           inkscape:connector-curvature="0"
           style="fill:#231608;fill-rule:nonzero" />
        <path
           class="fil3"
           d="m 4148,4302 c -7,2 -16,7 -21,11 -7,6 1,16 9,15 9,-2 19,-7 23,-16 2,-6 -4,-12 -10,-10 z"
           id="path2285"
           inkscape:connector-curvature="0"
           style="fill:#231608;fill-rule:nonzero" />
        <path
           class="fil3"
           d="m 5749,6344 c -146,-7 -298,-10 -445,-1 34,-39 62,-84 78,-132 30,-86 24,-189 -12,-279 1,-14 0,-28 0,-41 -1,-23 -1,-46 -4,-68 4,-123 -19,-251 -37,-371 -25,-161 -62,-321 -108,-478 -57,-195 -228,-418 -455,-393 0,-1 -1,-3 -1,-4 -2,-14 -4,-29 -10,-42 29,-9 55,-34 76,-53 28,-26 52,-56 73,-88 118,52 200,-126 180,-221 0,-1 -1,-2 -1,-3 67,-43 103,-139 130,-211 34,-90 49,-191 29,-286 -29,-130 -177,-175 -296,-146 49,-53 131,-54 199,-54 9,0 13,-13 5,-17 -75,-33 -192,0 -232,74 -13,-38 -15,-67 10,-105 25,-38 66,-62 102,-87 9,-6 3,-19 -7,-17 -61,11 -141,87 -149,157 -76,-102 -184,-181 -315,-179 -161,3 -338,97 -463,192 -120,91 -230,231 -265,380 -33,138 85,262 208,301 3,51 9,101 18,149 23,124 82,248 187,321 32,23 68,36 105,42 -21,12 -40,28 -53,48 -33,49 -59,120 -69,187 0,1 -1,2 -1,3 -2,7 -5,13 -7,20 -18,-26 -37,-52 -55,-78 -37,-50 -81,-74 -141,-82 -83,-10 -175,0 -259,4 -4,-29 -10,-58 -19,-86 -2,-8 -5,-16 -9,-25 0,-1 -1,-1 -1,-2 l -8,-11 c -6,-7 -14,-12 -23,-15 0,0 0,0 0,0 -60,-17 -316,-5 -307,99 -1,13 1,27 1,39 1,15 1,31 2,46 0,5 1,10 1,15 -1,0 -1,0 -2,0 -31,6 -69,18 -89,45 -17,23 -12,55 12,71 -6,6 -12,13 -16,21 -17,26 -1,46 22,56 -9,10 -16,21 -21,34 -11,27 6,45 29,53 -8,15 -12,33 -10,52 6,43 45,67 86,62 0,3 0,7 0,10 1,21 -1,46 12,63 1,1 2,2 3,2 2,3 4,7 6,10 17,31 53,46 91,51 68,123 218,217 344,268 128,51 280,-6 369,-106 23,39 48,77 81,107 -6,35 -8,72 -14,107 -6,30 -17,59 -24,89 -18,-7 -41,-1 -59,11 -1,0 -1,-1 -2,-1 -128,-21 -256,-41 -384,-63 -100,-17 -218,-41 -318,-17 -78,19 -130,109 -136,184 -4,56 -9,138 35,180 -46,66 -69,154 -51,223 -95,-7 -200,-9 -294,2 -10,1 -10,14 0,15 96,11 204,9 301,2 3,7 6,14 10,20 31,133 403,65 489,53 117,-17 232,-46 347,-77 77,12 154,20 231,34 0,0 1,0 1,0 42,71 146,101 219,118 80,19 197,33 267,-20 0,0 0,0 0,0 24,-11 46,-29 65,-49 106,23 208,-20 283,-93 153,11 312,8 464,1 13,-1 13,-19 0,-20 z m -438,-765 v 0 c -127,71 -300,83 -441,93 -123,9 -246,-9 -369,-14 14,-8 27,-17 40,-26 141,17 290,6 431,-8 105,-11 241,-20 335,-76 1,11 2,21 3,31 z m -11,-92 v 0 c 2,11 3,22 5,34 -111,60 -262,71 -385,81 -117,10 -235,3 -352,10 36,-30 67,-64 90,-93 3,8 6,16 9,23 4,9 16,11 21,5 1,-1 3,-1 4,-2 72,-67 137,-144 199,-221 117,6 265,-28 363,-90 18,84 34,168 47,253 z m -52,-275 v 0 c -60,24 -116,48 -179,64 -53,13 -106,18 -159,25 3,-3 5,-6 8,-10 8,-10 16,-20 25,-31 51,3 104,-11 152,-25 46,-13 109,-33 144,-70 4,15 7,31 11,47 z M 4048,3944 v 0 c -9,61 -12,126 -11,190 -65,-26 -117,-69 -154,-130 -44,-73 -16,-158 19,-228 60,-122 157,-222 269,-297 112,-75 252,-134 387,-145 155,-13 241,120 335,219 2,2 3,3 5,3 2,5 6,8 11,8 136,-16 281,-16 303,153 19,147 -53,309 -143,422 -41,-60 -145,-68 -189,-16 -4,-27 -11,-53 -15,-79 -5,-42 -5,-81 -5,-123 0,-7 -6,-5 -12,-5 v 0 c -167,-14 -310,-44 -395,-208 0,0 -1,-2 -1,-3 0,-9 1,-20 1,-29 0,-18 -26,-18 -28,0 -8,75 -12,149 -33,221 -119,-33 -178,-179 -174,-292 0,-9 -14,-12 -16,-2 -6,27 -6,56 -2,85 -103,40 -138,154 -153,256 z m 176,641 v 0 c -86,-76 -125,-198 -143,-307 -16,-95 -14,-199 -6,-295 8,-104 38,-213 131,-268 23,100 97,197 194,216 9,2 16,-2 19,-11 18,-54 27,-111 32,-167 63,130 248,213 387,182 -8,36 -6,73 -3,110 4,43 7,95 26,134 6,12 22,5 22,-6 v 0 c 42,-88 161,-63 173,27 11,84 -59,192 -152,167 -5,-1 -10,1 -13,4 -1,1 -3,2 -4,4 -20,29 -43,56 -68,81 -26,26 -59,41 -85,65 -4,4 -4,8 -2,12 -3,16 0,32 2,48 2,13 2,28 8,40 -12,55 -46,97 -93,129 -24,16 -52,26 -80,21 -45,-8 -42,-43 -29,-73 1,5 3,9 7,12 5,5 12,3 16,-2 7,-11 3,-24 1,-36 -1,-8 -3,-17 -6,-25 32,-17 61,-38 86,-63 7,-7 -2,-18 -11,-14 -58,30 -108,63 -169,79 -12,2 -23,4 -35,7 -5,1 -11,1 -16,2 -70,5 -136,-25 -188,-70 z m 78,193 v 0 c 25,-54 71,-78 122,-92 28,-3 57,-9 84,-19 9,-2 17,-4 25,-6 1,0 1,-1 2,-1 0,1 0,2 1,4 -66,51 -18,139 60,134 82,-5 168,-102 175,-180 0,-1 0,-2 0,-3 0,-2 0,-4 0,-6 114,9 206,49 289,133 93,94 125,221 159,345 5,19 10,38 15,58 -44,18 -83,44 -129,60 -46,16 -93,24 -141,31 44,-55 87,-117 101,-181 3,-12 -12,-17 -19,-8 -64,86 -115,180 -184,264 -56,69 -120,133 -176,204 -21,-116 -103,-250 -202,-312 130,-120 226,-285 331,-426 5,-7 -6,-16 -12,-10 -124,133 -210,302 -347,424 -5,5 -5,11 -3,15 0,2 1,3 3,5 2,3 5,5 7,8 -17,8 -34,18 -47,32 -8,-14 -16,-27 -24,-41 3,-44 -6,-90 -10,-134 -5,-55 -10,-110 -16,-164 -1,-10 -16,-11 -16,0 -3,63 2,125 7,188 1,17 1,36 2,55 -35,-57 -72,-114 -109,-170 14,-70 24,-140 54,-206 z m -324,35 v 0 c 109,-4 156,56 210,140 27,42 53,84 80,125 0,0 -1,1 -1,1 -21,33 -39,65 -67,93 -27,27 -61,47 -97,61 -2,-2 -3,-4 -5,-6 0,-1 -1,-3 -2,-4 -17,-17 -38,-26 -53,-45 -13,-18 -21,-39 -31,-58 2,-13 -10,-25 -22,-29 -14,-5 -30,-4 -42,4 -1,1 -2,2 -3,3 -2,1 -4,2 -6,3 -7,5 -3,17 6,15 11,-3 30,-13 36,5 4,12 0,24 -8,33 -16,17 -47,14 -66,5 -33,-16 -18,-69 -33,-98 -3,-10 -6,-20 -5,-32 0,-10 2,-19 2,-29 1,-4 0,-9 -1,-13 0,-1 0,-2 0,-2 0,-2 -1,-3 -2,-4 -2,-4 -4,-8 -7,-12 -4,-13 -8,-27 -2,-40 8,-17 28,-24 45,-31 5,-1 11,-2 16,-4 13,-3 30,-6 39,-17 4,-5 3,-13 -4,-14 -13,-3 -24,3 -36,7 -2,1 -5,2 -7,2 -1,0 -1,0 -2,0 -45,-13 -93,-8 -139,-16 -1,-16 -2,-32 -4,-48 70,6 141,6 211,4 z m -189,346 v 0 c -1,-18 -2,-36 -3,-54 0,-62 -7,-125 -10,-185 -1,-13 -1,-27 -2,-40 19,9 43,7 64,9 6,1 12,2 18,3 -8,6 -15,14 -20,23 -14,25 -7,58 12,78 0,1 0,2 1,2 -8,27 -12,62 7,83 -2,27 1,57 11,80 13,31 56,44 87,38 19,-4 42,-17 53,-35 14,36 35,70 74,77 3,6 6,13 8,19 -1,1 -2,1 -4,2 -40,36 -88,90 -148,80 -49,-8 -112,-58 -145,-92 1,-13 -1,-26 -2,-39 3,-16 -1,-35 -2,-50 z m -94,-483 v 0 c 2,1 3,2 4,3 5,5 8,13 10,19 3,10 5,20 8,29 1,3 1,7 2,10 1,6 2,12 4,18 7,63 16,127 19,190 4,68 5,137 13,205 0,15 1,29 1,44 1,16 0,32 1,48 0,3 -1,6 -1,8 0,1 0,2 0,3 0,2 -1,4 -1,5 -1,4 -1,7 -2,11 -3,9 -9,17 -14,24 -2,2 -5,4 -7,5 -3,2 -6,4 -9,6 3,-9 5,-18 6,-27 8,-87 -6,-178 -11,-264 -5,-82 -3,-164 -9,-245 -3,-34 -9,-70 -29,-97 5,1 10,1 14,2 z m -361,225 v 0 c 17,-18 45,-25 69,-29 22,-4 47,-5 68,3 22,8 8,23 7,38 -29,-10 -62,-7 -89,5 -18,8 -36,19 -52,33 -11,-18 -22,-31 -3,-50 z m 3,82 v 0 c 16,-17 36,-29 56,-40 18,-9 35,-13 55,-12 13,1 27,5 38,13 14,11 1,29 -4,41 0,0 0,1 0,1 0,0 0,0 0,0 -31,-19 -73,-2 -102,14 -12,7 -23,14 -34,23 -24,-9 -27,-20 -9,-40 z m 49,44 v 0 c 20,-12 43,-21 66,-21 10,0 19,4 24,12 14,20 2,41 -8,60 -25,-7 -55,-5 -74,0 -18,5 -34,16 -46,30 -49,-19 11,-66 37,-81 z m 16,143 v 0 c -11,4 -9,20 3,20 3,0 7,0 11,0 -2,9 -3,19 -3,29 -28,-2 -52,-11 -60,-40 -8,-28 12,-54 34,-68 25,-15 65,-17 89,2 33,27 -60,53 -74,57 z m 46,117 v 0 c 0,-13 -3,-26 -4,-38 -2,-21 -2,-43 -7,-63 38,-9 80,-34 70,-73 -3,-12 -10,-20 -20,-26 27,-23 32,-64 8,-90 0,0 1,0 1,-1 28,-22 26,-55 1,-74 21,-13 14,-52 -3,-65 -16,-12 -37,-15 -58,-14 0,-3 0,-6 0,-10 0,-1 0,-2 0,-3 0,-8 -1,-16 -3,-24 0,-8 -1,-15 -1,-23 0,-18 1,-35 2,-53 41,-51 142,-63 216,-60 52,79 30,199 35,289 4,75 9,149 13,224 2,45 11,91 -15,126 -5,6 -11,11 -18,15 -11,7 -24,10 -35,16 -74,13 -155,4 -183,-55 z m 109,91 v 0 c 22,1 50,0 77,-3 -4,4 -7,7 -11,11 -10,9 -20,18 -31,27 -12,-11 -24,-23 -36,-34 z m 531,224 v 0 c -82,45 -172,28 -253,-9 -89,-41 -159,-102 -228,-166 10,-6 19,-14 28,-22 11,-10 25,-21 31,-35 27,-6 52,-14 71,-28 8,-4 14,-9 20,-15 15,-9 23,-27 27,-47 1,-2 1,-3 2,-5 36,47 102,87 157,96 56,9 122,-46 155,-90 31,65 67,128 101,191 7,13 15,27 22,41 -43,33 -86,64 -134,90 z m 187,-67 v 0 c -55,-91 -95,-199 -159,-285 68,-20 142,-84 165,-151 53,82 108,163 167,240 6,8 19,1 14,-8 -10,-19 -21,-38 -32,-56 2,-1 4,-2 5,-3 15,-12 31,-22 46,-35 34,37 68,73 96,116 29,43 49,90 68,137 -52,46 -98,96 -156,136 -94,64 -168,-14 -214,-91 z m 60,225 v 0 c 7,-31 12,-63 10,-94 0,0 1,1 1,1 -2,5 0,13 8,14 177,22 363,33 541,20 79,-6 157,-19 234,-34 62,-13 128,-26 184,-58 7,85 10,170 23,253 -32,-52 -74,-96 -126,-123 -168,-91 -404,-1 -563,66 -89,37 -175,80 -261,123 -12,-10 -30,-15 -43,-23 -15,-9 -27,-21 -39,-32 1,-2 1,-4 0,-6 0,0 0,-1 -1,-1 17,-32 24,-70 32,-105 z m 715,326 v 0 c -145,81 -319,116 -479,159 -3,1 -5,1 -8,2 -1,-2 -3,-4 -5,-5 -95,-59 -109,-231 -76,-328 171,-84 356,-169 548,-178 62,-3 116,10 161,34 2,2 5,4 7,6 2,2 5,4 7,6 53,73 63,143 5,229 -49,72 -129,114 -213,128 21,-12 42,-24 62,-38 9,-6 1,-21 -9,-15 z m -447,185 v 0 c -15,18 -24,41 -26,64 -13,-4 -26,-7 -40,-11 3,-9 8,-17 14,-24 6,-7 13,-13 19,-20 11,-3 22,-5 33,-8 z m -77,-14 v 0 c -14,4 -28,7 -42,11 -1,-1 -1,-2 -2,-3 -84,-77 -117,-203 -79,-310 19,-10 38,-20 57,-29 -34,104 -23,263 67,331 z m -35,47 v 0 c 1,-2 2,-4 2,-6 1,0 1,0 2,0 11,-3 23,-6 34,-9 -6,9 -10,19 -12,29 -10,-3 -20,-6 -30,-9 1,-2 3,-3 4,-5 z m -282,-431 v 0 c 2,2 5,3 8,2 11,-3 22,-6 33,-9 10,-2 17,-1 24,3 0,1 0,1 0,2 0,3 1,5 2,7 3,21 25,37 41,49 8,6 20,14 32,20 -14,7 -29,15 -43,22 -24,12 -48,25 -72,37 -74,-49 -154,-93 -231,-135 -12,-7 -24,-13 -37,-19 81,15 162,26 243,22 z m -132,214 v 0 c 0,1 0,1 0,2 -35,19 -69,39 -102,60 8,-31 11,-62 26,-92 21,-42 58,-74 102,-91 1,0 2,-1 2,-1 11,7 23,14 34,21 -16,10 -29,23 -39,39 -11,16 -26,41 -23,62 z m 38,-40 v 0 c 10,-19 24,-36 41,-49 1,0 1,-1 1,-2 4,2 8,4 12,6 -1,0 -3,1 -4,2 -13,15 -28,33 -31,53 0,0 0,0 0,0 -11,6 -21,11 -32,17 4,-9 8,-19 13,-28 z m 64,-32 v 0 c 2,-2 2,-5 1,-7 9,4 18,9 27,12 -15,8 -30,15 -44,23 5,-9 10,-19 17,-28 z m -756,-98 v 0 c 31,-121 146,-124 247,-115 56,5 113,15 170,26 67,20 128,53 190,89 16,10 33,20 49,31 -43,14 -75,43 -100,83 -20,32 -41,83 -36,125 -74,-15 -143,-59 -212,-86 -49,-19 -120,-43 -173,-26 -47,3 -91,30 -125,69 -32,-51 -24,-143 -10,-196 z m 480,312 v 0 c 7,0 13,0 19,0 -2,27 1,57 8,85 -9,0 -17,0 -26,0 4,-27 4,-58 -1,-85 z m 22,-24 v 0 c -26,-8 -54,-9 -80,-13 -26,-4 -53,-10 -79,-9 -3,-26 -10,-51 -24,-72 16,7 31,14 46,20 41,18 94,53 142,52 -2,7 -4,14 -6,22 z m -44,22 v 0 c -1,29 -1,58 -2,87 -9,0 -18,0 -27,0 3,-12 4,-24 5,-36 3,-18 4,-37 5,-55 6,1 12,2 19,3 z m -74,-13 v 0 c 10,2 21,4 31,5 2,0 4,1 6,1 -3,18 -5,35 -8,53 -2,14 -6,28 -6,42 -12,0 -24,1 -36,2 8,-32 16,-70 14,-103 z m -20,-4 v 0 c -3,17 -5,34 -8,50 -3,19 -8,39 -9,58 -10,1 -20,2 -29,3 6,-16 11,-31 15,-44 7,-23 11,-49 11,-73 7,2 13,4 20,6 z m -380,182 v 0 c -23,-67 -16,-131 16,-195 33,-67 85,-101 151,-125 1,0 1,0 2,0 -51,29 -87,84 -107,140 -21,59 -24,168 23,222 -36,-6 -66,-19 -84,-42 z m 201,47 v 0 c -22,1 -45,1 -69,0 -63,-56 -66,-144 -44,-220 21,-73 71,-121 139,-141 5,1 11,1 16,2 17,3 34,8 50,13 95,100 13,282 -94,345 z m 68,-5 v 0 c -2,0 -5,0 -8,1 27,-22 47,-56 63,-90 65,11 143,6 208,-5 10,24 25,44 44,54 -101,22 -204,34 -307,40 z m 348,-50 v 0 c -2,0 -3,1 -5,1 -1,-1 -1,-1 -2,-2 -37,-25 -55,-48 -65,-93 -8,-35 -3,-69 0,-104 128,-56 252,-126 376,-193 -27,93 -1,239 80,293 -128,33 -256,65 -384,96 z m 415,-5 v 0 c -54,-9 -108,-18 -163,-22 58,-16 116,-32 174,-47 -13,19 -16,46 -10,69 z m -3,-99 v 0 c 0,0 0,-1 -1,-1 -80,-78 -113,-188 -85,-297 9,-5 18,-10 26,-14 -34,101 -4,244 83,306 -8,2 -16,4 -24,6 z m 27,103 v 0 c 0,0 -1,-1 -1,-1 -3,-14 -2,-27 2,-41 2,-6 5,-12 9,-17 50,30 114,43 171,53 -8,37 -8,75 10,107 -70,-19 -135,-52 -191,-102 z m 187,-30 v 0 c -18,-4 -35,-9 -52,-13 7,-29 27,-49 36,-77 24,-6 48,-12 72,-18 -23,29 -39,67 -50,95 -2,4 -3,9 -5,13 z m 197,147 v 0 c -56,5 -112,2 -166,-9 -59,-86 14,-196 76,-262 52,-15 103,-31 152,-51 10,4 19,7 28,11 43,54 37,114 16,176 -21,60 -61,95 -106,134 z m 173,-157 v 0 c -12,62 -54,109 -106,139 67,-67 103,-188 64,-269 36,28 54,68 43,130 z m 4,81 v 0 c 18,-29 31,-61 35,-92 7,-58 -21,-137 -73,-170 104,5 204,-72 260,-154 30,-44 44,-111 32,-168 49,61 78,144 84,233 13,190 -147,363 -337,351 z"
           id="path2287"
           inkscape:connector-curvature="0"
           style="fill:#231608;fill-rule:nonzero" />
        <path
           class="fil3"
           d="m 3577,4747 c -3,-7 -9,-13 -15,-18 -8,-10 -28,-11 -39,-9 -16,2 -31,15 -34,30 -7,29 27,54 54,52 28,-2 47,-29 35,-55 z m -31,27 v 0 c -13,4 -30,-2 -33,-16 -1,-5 3,-9 8,-12 0,0 1,0 1,0 10,-4 23,-1 29,8 6,9 5,16 -5,20 z"
           id="path2289"
           inkscape:connector-curvature="0"
           style="fill:#231608;fill-rule:nonzero" />
        <path
           class="fil3"
           d="m 4448,5569 c -4,10 -8,21 -6,31 1,6 9,7 13,3 8,-8 9,-19 11,-30 2,-12 -14,-16 -18,-5 z"
           id="path2291"
           inkscape:connector-curvature="0"
           style="fill:#231608;fill-rule:nonzero" />
        <path
           class="fil3"
           d="m 4405,5563 c 0,7 -3,14 -3,21 0,7 9,11 14,6 7,-7 7,-17 7,-27 0,-12 -18,-12 -18,0 z"
           id="path2293"
           inkscape:connector-curvature="0"
           style="fill:#231608;fill-rule:nonzero" />
        <path
           class="fil3"
           d="m 3339,4317 c -3,-11 -22,-9 -21,3 5,54 26,108 47,157 5,13 23,3 21,-9 -9,-52 -31,-102 -47,-151 z"
           id="path2295"
           inkscape:connector-curvature="0"
           style="fill:#231608;fill-rule:nonzero" />
        <path
           class="fil3"
           d="m 3262,4648 c -52,-41 -115,-75 -174,-106 -9,-5 -20,7 -12,15 48,44 113,81 173,107 10,4 22,-8 13,-16 z"
           id="path2297"
           inkscape:connector-curvature="0"
           style="fill:#231608;fill-rule:nonzero" />
        <path
           class="fil3"
           d="m 3243,4847 c -57,7 -114,25 -169,43 -12,4 -7,21 5,19 56,-11 114,-23 166,-45 8,-3 8,-18 -2,-17 z"
           id="path2299"
           inkscape:connector-curvature="0"
           style="fill:#231608;fill-rule:nonzero" />
        <path
           class="fil3"
           d="m 5071,5773 c -13,-8 -30,-5 -43,-2 -12,3 -7,20 5,18 12,-2 24,1 36,-1 7,-1 8,-12 2,-15 z"
           id="path2301"
           inkscape:connector-curvature="0"
           style="fill:#231608;fill-rule:nonzero" />
        <path
           class="fil3"
           d="m 5050,5814 c -5,-1 -9,-1 -14,-1 -11,0 -11,17 0,17 5,0 10,0 14,-1 7,-2 7,-12 0,-15 z"
           id="path2303"
           inkscape:connector-curvature="0"
           style="fill:#231608;fill-rule:nonzero" />
        <path
           class="fil3"
           d="m 5181,6315 c -1,-6 -7,-12 -13,-8 -6,4 -8,11 -10,20 -2,10 -4,20 -4,30 0,11 15,12 18,2 3,-8 5,-16 7,-24 1,-4 2,-8 3,-11 0,-2 1,-4 1,-6 0,1 -1,-6 -1,-3 z"
           id="path2305"
           inkscape:connector-curvature="0"
           style="fill:#231608;fill-rule:nonzero" />
        <path
           class="fil3"
           d="m 5112,6340 c -3,9 -6,18 -6,27 0,9 11,11 15,4 5,-8 7,-17 10,-26 4,-12 -15,-17 -19,-5 z"
           id="path2307"
           inkscape:connector-curvature="0"
           style="fill:#231608;fill-rule:nonzero" />
      </g>
    </g>
  </g>
</svg>
