<?xml version="1.0" encoding="UTF-8" standalone="no"?>
<!-- Created with Inkscape (http://www.inkscape.org/) -->

<svg
   xmlns:dc="http://purl.org/dc/elements/1.1/"
   xmlns:cc="http://creativecommons.org/ns#"
   xmlns:rdf="http://www.w3.org/1999/02/22-rdf-syntax-ns#"
   xmlns:svg="http://www.w3.org/2000/svg"
   xmlns="http://www.w3.org/2000/svg"
   xmlns:sodipodi="http://sodipodi.sourceforge.net/DTD/sodipodi-0.dtd"
   xmlns:inkscape="http://www.inkscape.org/namespaces/inkscape"
   width="45.583202mm"
   height="57.998405mm"
   viewBox="0 0 45.583202 57.998406"
   version="1.1"
   id="svg2287"
   inkscape:version="0.92.3 (3ce5693, 2018-03-11)"
   sodipodi:docname="facebook.svg">
  <defs
     id="defs2281" />
  <sodipodi:namedview
     id="base"
     pagecolor="#ffffff"
     bordercolor="#666666"
     borderopacity="1.0"
     inkscape:pageopacity="0.0"
     inkscape:pageshadow="2"
     inkscape:zoom="0.98994949"
     inkscape:cx="-103.28283"
     inkscape:cy="129.71849"
     inkscape:document-units="mm"
     inkscape:current-layer="layer1"
     showgrid="false"
     fit-margin-top="0"
     fit-margin-left="0"
     fit-margin-right="0"
     fit-margin-bottom="0"
     inkscape:window-width="1366"
     inkscape:window-height="658"
     inkscape:window-x="0"
     inkscape:window-y="27"
     inkscape:window-maximized="1" />
  <metadata
     id="metadata2284">
    <rdf:RDF>
      <cc:Work
         rdf:about="">
        <dc:format>image/svg+xml</dc:format>
        <dc:type
           rdf:resource="http://purl.org/dc/dcmitype/StillImage" />
        <dc:title></dc:title>
      </cc:Work>
    </rdf:RDF>
  </metadata>
  <g
     inkscape:label="Layer 1"
     inkscape:groupmode="layer"
     id="layer1"
     transform="translate(7.9211246,-97.00765)">
    <path
       style="clip-rule:evenodd;fill:#415c9a;fill-rule:evenodd;stroke-width:0.02540057;image-rendering:optimizeQuality;shape-rendering:geometricPrecision;text-rendering:geometricPrecision"
       inkscape:connector-curvature="0"
       id="path1386"
       d="m 33.459979,120.08086 c 6.57875,10.28723 5.84213,13.81791 -5.13091,25.29897 -3.50528,0.254 -6.62955,3.75928 -10.465037,1.16842 -1.016023,-5.86753 3.149671,-9.67762 6.451745,-14.85933 C 16.390799,129.93628 8.491222,129.09806 3.258705,122.67172 0.23603695,120.25866 -1.491201,117.6678 0.31223895,113.42591 1.68387,110.20004 2.217282,106.56776 2.903097,103.06248 l -0.0254,0.0508 c 4.978511,-4.445103 10.109426,-5.486523 15.67215,-0.96522 1.524035,1.24462 3.429077,1.72724 5.410322,2.00664 10.03323,1.37163 11.35405,3.32748 9.34741,13.56391 -0.17781,0.83821 -0.27941,1.60023 0.1524,2.36225 z"
       class="fil0" />
    <path
       style="clip-rule:evenodd;fill:#4166a3;fill-rule:evenodd;stroke-width:0.02540057;image-rendering:optimizeQuality;shape-rendering:geometricPrecision;text-rendering:geometricPrecision"
       inkscape:connector-curvature="0"
       id="path1388"
       d="m 2.903097,103.08788 c 0.0762,3.83548 0.939821,7.84877 -1.320829,11.32865 -2.717861,4.1911 2.69246,4.67371 3.124269,7.36617 2.870265,4.4959 6.070736,8.58539 10.820643,11.37945 3.09887,1.80344 4.800707,4.64831 3.302073,8.50919 -2.794062,2.28605 -5.537323,0.83822 -7.442366,-0.93982 -5.105514,-4.77531 -11.53185805,-7.59477 -16.840577,-12.01447 -0.558813,-0.58421 -1.066824,-1.21922 -1.549435,-1.87964 1.143026,-8.814 6.35014295,-15.90076 9.880822,-23.72413 z"
       class="fil1" />
    <path
       style="clip-rule:evenodd;fill:#4166a3;fill-rule:evenodd;stroke-width:0.02540057;image-rendering:optimizeQuality;shape-rendering:geometricPrecision;text-rendering:geometricPrecision"
       inkscape:connector-curvature="0"
       id="path1390"
       d="m 33.459979,120.08086 c -1.93044,-1.21923 -0.78741,-2.74326 -0.63501,-4.3435 0.50801,-5.63892 0.40641,-10.92224 -7.95038,-9.24581 -2.057446,0.40641 -4.673704,0.73662 -6.223139,-1.27002 -4.622904,-5.943743 -9.957023,-5.461133 -15.748353,-2.10825 3.200472,-3.378283 20.269654,-7.467773 23.749532,-5.664333 7.97578,4.165703 9.98242,10.769843 6.83275,22.606513 z"
       class="fil1" />
    <path
       style="clip-rule:evenodd;fill:#418ec9;fill-rule:evenodd;stroke-width:0.02540057;image-rendering:optimizeQuality;shape-rendering:geometricPrecision;text-rendering:geometricPrecision"
       inkscape:connector-curvature="0"
       id="path1392"
       d="m -6.977724,126.78661 c 0.533412,0 1.066824,0.0254 1.600236,0.0254 0.939821,1.72724 2.590858,3.02267 3.200471,4.90231 2.18444895,6.73115 6.908955,9.90622 13.84331,10.16023 2.260651,0.0762 4.495901,0.45721 6.096137,2.33685 0.152403,0.38101 0.304807,0.76202 0.45721,1.11763 3.352876,2.89566 6.731149,-1.39704 10.084029,0.0254 -4.3181,2.99726 -8.712398,4.9023 -13.792512,1.57483 -1.600236,-1.04142 -3.276673,-0.86362 -4.267296,0.99062 -3.632281,6.90896 -7.924977,2.97187 -10.46503405,-0.254 C -4.894877,141.72214 -10.025792,135.4228 -7.028525,126.76121 Z"
       class="fil2" />
    <path
       style="clip-rule:evenodd;fill:#3d7ab5;fill-rule:evenodd;stroke-width:0.02540057;image-rendering:optimizeQuality;shape-rendering:geometricPrecision;text-rendering:geometricPrecision"
       inkscape:connector-curvature="0"
       id="path1394"
       d="m 10.557293,150.32306 c 0.127003,-1.70183 0.812818,-2.87026 2.463855,-2.66705 2.336853,0.2794 3.09887,2.20984 2.971867,4.16569 -0.101602,1.47323 -0.660415,3.70848 -2.819463,3.07347 -1.930444,-0.58422 -2.311452,-2.79407 -2.616259,-4.54671 z"
       class="fil3" />
    <path
       style="clip-rule:evenodd;fill:#3d7ab5;fill-rule:evenodd;stroke-width:0.02540057;image-rendering:optimizeQuality;shape-rendering:geometricPrecision;text-rendering:geometricPrecision"
       inkscape:connector-curvature="0"
       id="path1396"
       d="m 34.67795,146.07578 c 1.93044,0.43181 2.89567,1.65104 2.87026,3.47988 -0.0254,2.08285 -1.42243,2.79406 -3.30207,2.66706 -1.90504,-0.127 -3.12427,-1.11762 -2.81946,-3.14967 0.254,-1.80344 1.39703,-2.87026 3.25127,-2.99727 z"
       class="fil3" />
    <path
       style="clip-rule:evenodd;fill:#418ec9;fill-rule:evenodd;stroke-width:0.02540057;image-rendering:optimizeQuality;shape-rendering:geometricPrecision;text-rendering:geometricPrecision"
       inkscape:connector-curvature="0"
       id="path1398"
       d="m -4.7081871,149.51011 c -0.203205,-1.32083 0.533412,-1.72724 1.320829,-1.52404 0.635014,0.15241 1.473233,0.68582 1.676438,1.24463 0.304807,0.83822 -0.355608,1.57484 -1.295429,1.37163 -0.660415,-0.1524 -1.244628,-0.76201 -1.701838,-1.09222 z"
       class="fil2" />
    <path
       style="clip-rule:evenodd;fill:#3e5e91;fill-rule:evenodd;stroke-width:0.02540057;image-rendering:optimizeQuality;shape-rendering:geometricPrecision;text-rendering:geometricPrecision"
       inkscape:connector-curvature="0"
       id="path1400"
       d="m 18.19424,142.00155 c 0.330207,-3.42908 -0.838219,-6.65495 -4.01329,-7.59477 -6.553347,-1.95584 -7.874177,-7.26456 -9.474413,-12.64948 5.003913,4.34349 10.515836,7.28996 17.42479,6.78195 2.26065,-0.15241 4.749912,0.0762 5.435722,2.81946 0.60962,2.48926 -1.62563,3.30207 -3.276672,4.2419 -3.810087,2.15905 -3.251274,6.98515 -6.045336,9.75382 l -0.0508,0.0254 c -0.914421,-1.14303 -1.041424,-2.26066 0.0254,-3.37828 z"
       class="fil4" />
    <path
       style="clip-rule:evenodd;fill:#3d7ab5;fill-rule:evenodd;stroke-width:0.02540057;image-rendering:optimizeQuality;shape-rendering:geometricPrecision;text-rendering:geometricPrecision"
       inkscape:connector-curvature="0"
       id="path1402"
       d="m 18.19424,142.00155 c 0,1.14302 -0.0254,2.26065 -0.0254,3.37828 -1.574836,-0.55882 -3.09887,-1.42244 -4.699106,-1.60024 C -1.415,141.89995 -1.415,141.95075 -5.402889,126.83741 c 7.874176,5.05471 15.722952,10.10943 23.597129,15.16414 z"
       class="fil3" />
    <path
       style="clip-rule:evenodd;fill:#fefefe;fill-rule:nonzero;stroke-width:0.02540057;image-rendering:optimizeQuality;shape-rendering:geometricPrecision;text-rendering:geometricPrecision"
       inkscape:connector-curvature="0"
       id="path1404"
       d="m 22.258329,149.01211 v -16.81518 h 5.63893 l 0.83822,-6.55335 h -6.47715 v -4.19109 c 0,-1.90504 0.533414,-3.20047 3.25127,-3.20047 h 3.47988 v -5.86753 c -0.60961,-0.0762 -2.66706,-0.25401 -5.05471,-0.25401 -5.003914,0 -8.43299,3.04807 -8.43299,8.6616 v 4.8261 H 9.837452 v 6.55335 h 5.664327 v 16.81518 h 6.75655 v 0 z"
       class="fil5" />
  </g>
</svg>
