<?xml version="1.0" encoding="UTF-8" standalone="no"?>
<!-- Created with Inkscape (http://www.inkscape.org/) -->

<svg
   xmlns:dc="http://purl.org/dc/elements/1.1/"
   xmlns:cc="http://creativecommons.org/ns#"
   xmlns:rdf="http://www.w3.org/1999/02/22-rdf-syntax-ns#"
   xmlns:svg="http://www.w3.org/2000/svg"
   xmlns="http://www.w3.org/2000/svg"
   xmlns:sodipodi="http://sodipodi.sourceforge.net/DTD/sodipodi-0.dtd"
   xmlns:inkscape="http://www.inkscape.org/namespaces/inkscape"
   width="58.990482mm"
   height="53.935986mm"
   viewBox="0 0 58.990482 53.935986"
   version="1.1"
   id="svg2287"
   inkscape:version="0.92.3 (3ce5693, 2018-03-11)"
   sodipodi:docname="instagram.svg">
  <defs
     id="defs2281" />
  <sodipodi:namedview
     id="base"
     pagecolor="#ffffff"
     bordercolor="#666666"
     borderopacity="1.0"
     inkscape:pageopacity="0.0"
     inkscape:pageshadow="2"
     inkscape:zoom="0.35"
     inkscape:cx="-314.23622"
     inkscape:cy="-6.6451334"
     inkscape:document-units="mm"
     inkscape:current-layer="layer1"
     showgrid="false"
     fit-margin-top="0"
     fit-margin-left="0"
     fit-margin-right="0"
     fit-margin-bottom="0"
     inkscape:window-width="1366"
     inkscape:window-height="658"
     inkscape:window-x="0"
     inkscape:window-y="27"
     inkscape:window-maximized="1" />
  <metadata
     id="metadata2284">
    <rdf:RDF>
      <cc:Work
         rdf:about="">
        <dc:format>image/svg+xml</dc:format>
        <dc:type
           rdf:resource="http://purl.org/dc/dcmitype/StillImage" />
        <dc:title></dc:title>
      </cc:Work>
    </rdf:RDF>
  </metadata>
  <g
     inkscape:label="Layer 1"
     inkscape:groupmode="layer"
     id="layer1"
     transform="translate(-67.266666,-93.139155)">
    <path
       style="clip-rule:evenodd;fill:#b54196;fill-rule:evenodd;stroke-width:0.02540057;image-rendering:optimizeQuality;shape-rendering:geometricPrecision;text-rendering:geometricPrecision"
       inkscape:connector-curvature="0"
       id="path1460"
       d="m 72.211208,106.89366 c -3.14967,-5.91833 -2.31145,-8.890197 4.90231,-11.760457 7.21376,-2.87026 38.913672,-2.43845 36.576822,0 -2.33685,2.43845 0.48261,1.70184 -0.35561,2.38765 -2.46385,1.54944 -5.23251,1.44784 -7.95037,1.52404 -6.324752,0.0762 -12.674892,0 -19.025032,0.0508 -4.80071,0.0254 -8.61079,1.625637 -10.79524,6.146937 -0.86362,1.09222 -1.85424,1.90504 -3.35288,1.67643 z"
       class="fil18" />
    <path
       style="clip-rule:evenodd;fill:#944698;fill-rule:evenodd;stroke-width:0.02540057;image-rendering:optimizeQuality;shape-rendering:geometricPrecision;text-rendering:geometricPrecision"
       inkscape:connector-curvature="0"
       id="path1462"
       d="m 112.19171,97.165253 c 0,-0.55882 0,-1.11763 0,-1.65104 0.55881,0 1.11762,0 1.65103,0 1.32083,2.36225 4.03869,1.11762 5.79133,2.23525 2.18445,1.39703 1.62564,2.387647 -0.68581,2.844857 -1.52404,1.32083 -0.50801,3.53068 -1.75264,4.95311 0,1.09223 0,2.15905 0,3.25128 -4.5467,0.1016 -5.43572,-3.91169 -7.51857,-6.62955 -0.68581,-2.413057 0.63501,-3.835487 2.48926,-4.978507 z"
       class="fil19" />
    <path
       style="clip-rule:evenodd;fill:#ef4a74;fill-rule:evenodd;stroke-width:0.02540057;image-rendering:optimizeQuality;shape-rendering:geometricPrecision;text-rendering:geometricPrecision"
       inkscape:connector-curvature="0"
       id="path1464"
       d="m 72.211208,106.89366 c 0.58422,-0.60961 1.16843,-1.21922 1.75264,-1.80344 6.88356,-7.797967 16.68817,-6.299337 24.18134,-4.19109 7.391572,2.08285 14.605332,7.03596 21.692092,11.07466 3.88629,3.86088 4.3689,8.30598 2.28605,13.18289 -0.0762,1.34623 -0.48261,2.51466 -1.82884,3.14967 -1.65104,1.72724 -1.32083,4.2419 -2.43846,6.19774 -2.48925,2.64166 -6.60414,3.98789 -8.941,2.61626 -6.45174,-3.75928 -8.30598,-0.1016 -10.134822,4.74991 -12.64949,6.50254 -11.86207,5.46112 -22.0477,-5.20712 -9.2966,-9.70302 -9.70301,-18.87262 -4.5467,-29.82028 z"
       class="fil20" />
    <path
       style="clip-rule:evenodd;fill:#ea3a8c;fill-rule:evenodd;stroke-width:0.02540057;image-rendering:optimizeQuality;shape-rendering:geometricPrecision;text-rendering:geometricPrecision"
       inkscape:connector-curvature="0"
       id="path1466"
       d="m 118.69425,113.39622 c -2.05744,0.40641 -1.87964,-7.72178 -5.96913,-1.29543 -1.57484,2.48926 -3.25127,-1.39704 -4.69911,-2.74327 -9.017202,-8.33139 -24.257542,-10.261827 -34.087562,-4.2927 1.19383,-6.070727 5.02931,-8.509187 11.02385,-8.331377 6.78195,0.1778 13.5893,0.127 20.371252,0.2032 2.18445,1.65104 3.35288,4.724507 6.68035,4.775307 3.32748,1.14302 4.03869,4.85151 6.65495,6.70575 0.58422,0.53341 1.14303,1.06682 1.72724,1.60023 1.01602,1.95586 -0.58421,2.56547 -1.75264,3.40369 z"
       class="fil21" />
    <path
       style="clip-rule:evenodd;fill:#ea3a8c;fill-rule:evenodd;stroke-width:0.02540057;image-rendering:optimizeQuality;shape-rendering:geometricPrecision;text-rendering:geometricPrecision"
       inkscape:connector-curvature="0"
       id="path1468"
       d="m 98.805608,141.92106 c 2.438452,-4.5213 -3.30208,-2.69246 -4.16569,-5.61353 5.664322,0.0254 10.287232,-2.20985 13.614702,-6.32474 2.99727,2.76866 -0.38101,4.01329 0.1524,6.24854 3.27668,0.50801 5.99454,-0.96522 8.6108,-2.81946 3.09886,-0.20321 2.69246,1.39703 1.70183,3.30207 -6.62955,1.75264 -13.25909,3.47988 -19.888642,5.20712 z"
       class="fil21" />
    <path
       style="clip-rule:evenodd;fill:#9e4397;fill-rule:evenodd;stroke-width:0.02540057;image-rendering:optimizeQuality;shape-rendering:geometricPrecision;text-rendering:geometricPrecision"
       inkscape:connector-curvature="0"
       id="path1470"
       d="m 118.69425,113.39622 c 0.58422,-1.14303 1.16843,-2.28606 1.75264,-3.40369 4.5213,4.62292 9.57602,9.19502 1.67644,15.18955 -1.06682,-3.93709 0.2032,-8.55999 -3.42908,-11.76046 z"
       class="fil22" />
    <path
       style="clip-rule:evenodd;fill:#9e4397;fill-rule:evenodd;stroke-width:0.02540057;image-rendering:optimizeQuality;shape-rendering:geometricPrecision;text-rendering:geometricPrecision"
       inkscape:connector-curvature="0"
       id="path1472"
       d="m 118.69425,136.68854 c -0.1016,-1.32083 -0.33021,-2.61626 -1.70183,-3.30207 0.0254,-2.41306 0.88901,-4.2419 3.30207,-5.08012 -1.80344,2.54006 4.5467,6.65495 -1.62564,8.35679 z"
       class="fil22" />
    <path
       style="clip-rule:evenodd;fill:#b54196;fill-rule:evenodd;stroke-width:0.02540057;image-rendering:optimizeQuality;shape-rendering:geometricPrecision;text-rendering:geometricPrecision"
       inkscape:connector-curvature="0"
       id="path1474"
       d="m 117.24642,105.92844 c -0.91442,-2.18445 -3.12427,-5.66432 1.47323,-5.89293 2.31146,-0.838217 3.78469,4.92771 3.78469,4.92771 0,0 -4.5213,3.25127 -5.25792,0.99062 z"
       class="fil18" />
    <path
       style="clip-rule:evenodd;fill:#be3e95;fill-rule:evenodd;stroke-width:0.02540057;image-rendering:optimizeQuality;shape-rendering:geometricPrecision;text-rendering:geometricPrecision"
       inkscape:connector-curvature="0"
       id="path1476"
       d="m 112.0647,101.71195 c -0.50801,0.86362 -1.34623,2.51465 -1.47323,2.46385 -3.17507,-1.32083 -5.43572,-3.42907 -5.20711,-7.239157 2.76866,-0.0508 5.56272,-0.1016 8.33138,-0.1524 -0.55881,1.65103 -1.09222,3.276667 -1.65104,4.927707 z"
       class="fil23" />
    <path
       style="clip-rule:evenodd;fill:#f37a62;fill-rule:evenodd;stroke-width:0.02540057;image-rendering:optimizeQuality;shape-rendering:geometricPrecision;text-rendering:geometricPrecision"
       inkscape:connector-curvature="0"
       id="path1478"
       d="m 78.916958,145.55334 c -0.53341,-0.1524 -1.06682,-0.33021 -1.57483,-0.48261 -6.60415,-1.72724 -8.6362,-7.89958 -9.60142,-12.92889 -0.96522,-4.95311 -0.2032,-10.61744 0.0762,-15.97696 1.09223,-3.42908 3.55608,-5.02932 7.03596,-5.23253 0.81282,-0.3556 1.62564,-0.45721 2.38765,0.12701 1.49864,0.45722 2.87027,-0.48261 4.3435,-0.40641 2.28605,0.68581 4.2927,2.69247 4.1911,4.47051 -0.27941,4.90231 2.41305,4.90231 5.79133,4.5213 7.54396,5.48652 6.70574,5.33412 3.47987,14.45292 -2.94646,8.30599 -8.17898,11.25245 -16.10396,11.48106 z"
       class="fil24" />
    <path
       style="clip-rule:evenodd;fill:#f8a055;fill-rule:evenodd;stroke-width:0.02540057;image-rendering:optimizeQuality;shape-rendering:geometricPrecision;text-rendering:geometricPrecision"
       inkscape:connector-curvature="0"
       id="path1480"
       d="m 72.109608,141.66705 c -0.99062,-0.0762 -1.95584,-0.1778 -2.94647,-0.2794 0.10161,-0.99063 0.17781,-1.95585 0.27941,-2.94647 4.4197,-1.95584 2.66706,-7.01056 4.95311,-9.93162 2.87027,-3.65768 4.5213,-2.46386 4.92771,1.70184 2.05745,2.94646 6.17234,1.49863 8.48379,3.93709 1.93044,0.2032 3.83549,0.381 5.76593,0.55881 -0.58421,8.10278 -7.89958,9.0172 -13.05589,12.21767 -4.3943,0.81282 -6.70575,-1.77804 -8.40759,-5.25792 z"
       class="fil25" />
    <path
       style="clip-rule:evenodd;fill:#fefefe;fill-rule:nonzero;stroke-width:0.02540057;image-rendering:optimizeQuality;shape-rendering:geometricPrecision;text-rendering:geometricPrecision"
       inkscape:connector-curvature="0"
       id="path1482"
       d="m 87.400748,103.41379 c -4.80071,0 -8.73779,3.91168 -8.73779,8.7378 v 12.29388 c 0,4.8261 3.91168,8.73779 8.73779,8.73779 h 13.944912 c 4.80071,0 8.7378,-3.91169 8.7378,-8.73779 v -12.29388 c 0,-4.80072 -3.91169,-8.7378 -8.7378,-8.7378 z m 13.944912,32.23333 H 87.400748 c -6.19774,0 -11.22705,-5.02931 -11.22705,-11.22705 v -12.29388 c 0,-6.19775 5.02931,-11.22706 11.22705,-11.22706 h 13.944912 c 6.19774,0 11.22705,5.02931 11.22705,11.22706 v 12.29388 c 0,6.19774 -5.02931,11.22705 -11.22705,11.22705 z"
       class="fil5" />
    <path
       style="clip-rule:evenodd;fill:#fefefe;fill-rule:nonzero;stroke-width:0.02540057;image-rendering:optimizeQuality;shape-rendering:geometricPrecision;text-rendering:geometricPrecision"
       inkscape:connector-curvature="0"
       id="path1484"
       d="m 94.385908,110.77995 c -4.14029,0 -7.49317,3.35289 -7.49317,7.49318 0,4.14029 3.35288,7.49317 7.49317,7.49317 4.14029,0 7.493172,-3.35288 7.493172,-7.49317 0,-4.14029 -3.352882,-7.49318 -7.493172,-7.49318 z m 0,17.4756 c -5.51192,0 -9.98243,-4.4705 -9.98243,-9.98242 0,-5.51193 4.47051,-9.98244 9.98243,-9.98244 5.51192,0 9.982422,4.47051 9.982422,9.98244 0,5.51192 -4.470502,9.98242 -9.982422,9.98242 z"
       class="fil5" />
    <path
       style="clip-rule:evenodd;fill:#fefefe;fill-rule:nonzero;stroke-width:0.02540057;image-rendering:optimizeQuality;shape-rendering:geometricPrecision;text-rendering:geometricPrecision"
       inkscape:connector-curvature="0"
       id="path1486"
       d="m 106.29877,108.5955 c 0,1.14303 -0.93982,2.08285 -2.08284,2.08285 -1.14303,0 -2.08285,-0.93982 -2.08285,-2.08285 0,-1.14302 0.93982,-2.08285 2.08285,-2.08285 1.14302,0 2.08284,0.93983 2.08284,2.08285 z"
       class="fil5" />
  </g>
</svg>
