<?xml version="1.0" encoding="UTF-8" standalone="no"?>
<!-- Created with Inkscape (http://www.inkscape.org/) -->

<svg
   xmlns:dc="http://purl.org/dc/elements/1.1/"
   xmlns:cc="http://creativecommons.org/ns#"
   xmlns:rdf="http://www.w3.org/1999/02/22-rdf-syntax-ns#"
   xmlns:svg="http://www.w3.org/2000/svg"
   xmlns="http://www.w3.org/2000/svg"
   xmlns:sodipodi="http://sodipodi.sourceforge.net/DTD/sodipodi-0.dtd"
   xmlns:inkscape="http://www.inkscape.org/namespaces/inkscape"
   width="45.593788mm"
   height="49.457035mm"
   viewBox="0 0 45.593788 49.457036"
   version="1.1"
   id="svg2287"
   inkscape:version="0.92.3 (3ce5693, 2018-03-11)"
   sodipodi:docname="messenger.svg">
  <defs
     id="defs2281" />
  <sodipodi:namedview
     id="base"
     pagecolor="#ffffff"
     bordercolor="#666666"
     borderopacity="1.0"
     inkscape:pageopacity="0.0"
     inkscape:pageshadow="2"
     inkscape:zoom="1.4"
     inkscape:cx="29.732917"
     inkscape:cy="40.604956"
     inkscape:document-units="mm"
     inkscape:current-layer="layer1"
     showgrid="false"
     fit-margin-top="0"
     fit-margin-left="0"
     fit-margin-right="0"
     fit-margin-bottom="0"
     inkscape:window-width="1366"
     inkscape:window-height="658"
     inkscape:window-x="0"
     inkscape:window-y="27"
     inkscape:window-maximized="1" />
  <metadata
     id="metadata2284">
    <rdf:RDF>
      <cc:Work
         rdf:about="">
        <dc:format>image/svg+xml</dc:format>
        <dc:type
           rdf:resource="http://purl.org/dc/dcmitype/StillImage" />
        <dc:title></dc:title>
      </cc:Work>
    </rdf:RDF>
  </metadata>
  <g
     inkscape:label="Layer 1"
     inkscape:groupmode="layer"
     id="layer1"
     transform="translate(7.862659,-99.175982)">
    <path
       style="clip-rule:evenodd;fill:#415c9a;fill-rule:evenodd;stroke-width:0.02540057;image-rendering:optimizeQuality;shape-rendering:geometricPrecision;text-rendering:geometricPrecision"
       inkscape:connector-curvature="0"
       id="path1386"
       d="m 33.529031,120.0303 c 6.57875,10.28723 5.842129,13.81791 -5.130909,25.29897 -3.505283,0.254 -6.324744,2.59086 -10.160231,0 -1.016023,-5.86753 2.844863,-8.5092 6.146938,-13.69091 -7.921705,-1.75148 -7.114291,0.48335 -21.0570724,-9.0172 5.6909234,-1.30069 9.6678554,-3.29002 4.0460935,-8.77334 1.3716309,-3.22587 -5.0875165,-7.33062 -4.4017015,-10.8359 l -0.0254,0.0508 c 4.9785108,-4.445099 10.1094254,-5.486519 15.6721504,-0.96521 1.524034,1.24461 3.429077,1.72723 5.410322,2.00663 10.033231,1.37163 11.354049,3.32748 9.34741,13.56391 -0.177808,0.83821 -0.279408,1.60023 0.1524,2.36225 z"
       class="fil0"
       sodipodi:nodetypes="cccccccccccc" />
    <path
       style="clip-rule:evenodd;fill:#4166a3;fill-rule:evenodd;stroke-width:0.02540057;image-rendering:optimizeQuality;shape-rendering:geometricPrecision;text-rendering:geometricPrecision"
       inkscape:connector-curvature="0"
       id="path1388"
       d="m 2.9721486,103.03732 c 0.0762,3.83548 0.939821,7.84877 -1.320829,11.32865 -2.717861,4.1911 2.69246,4.67371 3.124269,7.36617 2.8702648,4.4959 6.0707354,8.58539 10.8206424,11.37945 3.098871,1.80344 4.800708,4.64831 3.302073,8.50919 -2.794062,2.28605 -5.537323,0.83822 -7.442366,-0.93982 -5.1055135,-4.77531 -11.53185742,-7.59477 -16.8405764,-12.01447 -0.558813,-0.58421 -1.066824,-1.21922 -1.549435,-1.87964 1.143026,-8.814 6.35014298,-15.90076 9.880822,-23.72413 z"
       class="fil1" />
    <path
       style="clip-rule:evenodd;fill:#4166a3;fill-rule:evenodd;stroke-width:0.02540057;image-rendering:optimizeQuality;shape-rendering:geometricPrecision;text-rendering:geometricPrecision"
       inkscape:connector-curvature="0"
       id="path1390"
       d="m 33.529031,120.0303 c -1.93044,-1.21923 -0.787408,-2.74326 -0.635008,-4.3435 0.508008,-5.63892 0.406408,-10.92224 -7.950383,-9.24581 -2.057446,0.40641 -4.673704,0.73662 -6.223138,-1.27002 -4.622905,-5.943739 -9.9570235,-5.461129 -15.7483534,-2.10825 2.5746329,-4.942869 18.7683234,-4.606509 22.6156034,-1.88456 7.97578,4.16569 11.11635,6.99007 7.966679,18.82674 z"
       class="fil1"
       sodipodi:nodetypes="cccccccc" />
    <path
       style="clip-rule:evenodd;fill:#418ec9;fill-rule:evenodd;stroke-width:0.02540057;image-rendering:optimizeQuality;shape-rendering:geometricPrecision;text-rendering:geometricPrecision"
       inkscape:connector-curvature="0"
       id="path1392"
       d="m -6.9086724,126.73605 c 0.533412,0 1.066824,0.0254 1.600236,0.0254 0.939821,1.72724 2.590858,3.02267 3.200471,4.90231 2.18444898,6.73115 6.908955,9.90622 13.8433094,10.16023 2.260651,0.0762 4.495901,0.45721 6.096137,2.33685 0.152403,0.38101 0.304807,0.76202 0.45721,1.11763 3.352877,2.89566 6.731149,-1.39704 10.084031,0.0254 -4.318101,2.99726 -8.712399,4.9023 -13.792514,1.57483 -1.600236,-1.04142 -5.212236,-0.42679 -5.212236,-0.42679 -13.7578284,-5.18603 -9.25933542,-4.70911 -9.61458742,-4.73698 -4.67370398,-5.94374 -9.71012498,-6.34269 -6.71285798,-15.00428 z"
       class="fil2"
       sodipodi:nodetypes="cccccccccccc" />
    <path
       style="clip-rule:evenodd;fill:#3e5e91;fill-rule:evenodd;stroke-width:0.02540057;image-rendering:optimizeQuality;shape-rendering:geometricPrecision;text-rendering:geometricPrecision"
       inkscape:connector-curvature="0"
       id="path1400"
       d="m 18.263291,141.95099 c 0.330207,-3.42908 -0.838219,-6.65495 -4.01329,-7.59477 -13.82666342,-2.19431 -17.7917474,-26.17378 -11.3032524,-31.2935 5.003913,4.34349 12.3446754,25.93398 19.2536294,25.42597 2.260651,-0.15241 4.749912,0.0762 5.435723,2.81946 0.609621,2.48926 -1.625629,3.30207 -3.276672,4.2419 -3.810088,2.15905 -3.251275,6.98515 -6.045337,9.75382 l -0.0508,0.0254 c -0.914421,-1.14303 -1.041424,-2.26066 0.0254,-3.37828 z"
       class="fil4"
       sodipodi:nodetypes="cccccccccc" />
    <path
       style="clip-rule:evenodd;fill:#3d7ab5;fill-rule:evenodd;stroke-width:0.02540057;image-rendering:optimizeQuality;shape-rendering:geometricPrecision;text-rendering:geometricPrecision"
       inkscape:connector-curvature="0"
       id="path1402"
       d="m 18.263291,141.95099 c 0,1.14302 -0.0254,2.26065 -0.0254,3.37828 -1.574836,-0.55882 -3.09887,-1.42244 -4.699106,-1.60024 -14.8847334,-1.87964 -14.8847334,-1.82884 -18.8726224,-16.94218 7.874176,5.05471 15.7229514,10.10943 23.5971284,15.16414 z"
       class="fil3" />
    <path
       inkscape:connector-curvature="0"
       style="fill:#ffffff;fill-opacity:1;stroke-width:0.04882574"
       d="m 15.455946,110.62627 c -6.7556161,-0.13316 -12.3457524,5.22352 -12.5000004,11.97798 0.0177,3.43829 1.540235,6.69647 4.16665,8.91579 v 3.583 c 0,0.28761 0.2332035,0.5208 0.5208503,0.5208 0.097594,0 0.1932615,-0.0274 0.2760253,-0.0791 l 2.9031258,-1.81334 c 1.4791,0.56568 3.049755,0.85411 4.633349,0.85095 6.755616,0.13316 12.345752,-5.22353 12.500002,-11.97799 -0.154252,-6.75452 -5.744386,-12.11121 -12.500002,-11.97803 z"
       id="path1093" />
    <path
       inkscape:connector-curvature="0"
       style="fill:#415c9a;fill-opacity:1;stroke-width:0.04851819"
       d="m 22.751616,119.1282 c -0.139488,-0.22787 -0.3952,-0.29606 -0.599982,-0.16 l -4.874948,3.23976 -3.032774,-3.17006 c -0.185975,-0.19435 -0.463356,-0.18144 -0.636542,0.0298 l -5.6249555,6.85662 c -0.1825033,0.2238 -0.1816243,0.58559 0.00201,0.80806 0.1468202,0.1779 0.3719507,0.21732 0.5539269,0.097 l 4.8749366,-3.23977 3.035587,3.17119 c 0.185973,0.19435 0.463354,0.18144 0.636541,-0.0298 l 5.624956,-6.85662 c 0.163915,-0.20168 0.181494,-0.51948 0.04122,-0.74619 z"
       id="path1095" />
  </g>
</svg>
