<?xml version="1.0" encoding="UTF-8" standalone="no"?>
<!-- Created with Inkscape (http://www.inkscape.org/) -->

<svg
   xmlns:dc="http://purl.org/dc/elements/1.1/"
   xmlns:cc="http://creativecommons.org/ns#"
   xmlns:rdf="http://www.w3.org/1999/02/22-rdf-syntax-ns#"
   xmlns:svg="http://www.w3.org/2000/svg"
   xmlns="http://www.w3.org/2000/svg"
   xmlns:sodipodi="http://sodipodi.sourceforge.net/DTD/sodipodi-0.dtd"
   xmlns:inkscape="http://www.inkscape.org/namespaces/inkscape"
   width="49.121708mm"
   height="53.45322mm"
   viewBox="0 0 49.121707 53.453221"
   version="1.1"
   id="svg2287"
   inkscape:version="0.92.3 (3ce5693, 2018-03-11)"
   sodipodi:docname="twitter.svg">
  <defs
     id="defs2281" />
  <sodipodi:namedview
     id="base"
     pagecolor="#ffffff"
     bordercolor="#666666"
     borderopacity="1.0"
     inkscape:pageopacity="0.0"
     inkscape:pageshadow="2"
     inkscape:zoom="0.98994949"
     inkscape:cx="92.828428"
     inkscape:cy="101.01397"
     inkscape:document-units="mm"
     inkscape:current-layer="layer1"
     showgrid="false"
     fit-margin-top="0"
     fit-margin-left="0"
     fit-margin-right="0"
     fit-margin-bottom="0"
     inkscape:window-width="1366"
     inkscape:window-height="658"
     inkscape:window-x="0"
     inkscape:window-y="27"
     inkscape:window-maximized="1" />
  <metadata
     id="metadata2284">
    <rdf:RDF>
      <cc:Work
         rdf:about="">
        <dc:format>image/svg+xml</dc:format>
        <dc:type
           rdf:resource="http://purl.org/dc/dcmitype/StillImage" />
        <dc:title></dc:title>
      </cc:Work>
    </rdf:RDF>
  </metadata>
  <g
     inkscape:label="Layer 1"
     inkscape:groupmode="layer"
     id="layer1"
     transform="translate(59.808895,-93.958095)">
    <path
       style="clip-rule:evenodd;fill:#01bce3;fill-rule:evenodd;stroke-width:0.02540057;image-rendering:optimizeQuality;shape-rendering:geometricPrecision;text-rendering:geometricPrecision"
       inkscape:connector-curvature="0"
       id="path1406"
       d="m -42.065983,146.60251 c -3.048069,-4.3181 -10.439634,-2.61626 -12.141472,-8.814 -0.711216,-1.04142 -1.854242,-1.67644 -2.514657,-2.79406 -1.016023,-1.70184 -1.37163,-3.58148 0.482611,-4.6483 2.616259,-1.49864 4.165693,-0.20321 4.622903,2.51465 0.584214,-2.46385 -0.381008,-4.8261 -1.143025,-7.18836 -2.387653,-7.64557 2.489256,-18.66942 9.855421,-22.14929 0.660415,-0.30481 1.473233,0 2.159048,0.3556 2.844864,3.88629 -0.406409,7.08676 -1.193827,10.56664 -0.88902,3.83549 -2.946466,7.97578 2.336853,10.36343 5.130915,2.31145 11.201651,0.25401 13.589304,-4.5721 2.489255,-5.05471 -0.685816,-8.00118 -4.216495,-10.71904 -3.175071,-2.43846 -7.797974,-2.23525 -10.490434,-5.63893 0.711216,-4.699104 4.140292,-4.343494 7.442367,-3.86088 10.287231,1.54943 17.8566,11.65886 16.891379,22.4795 -0.635016,7.36616 -10.642838,13.99571 -21.615885,14.14812 3.073468,2.23525 5.613525,4.5975 3.733883,8.71239 -2.514656,1.06683 -4.826108,3.17507 -7.823375,1.27003 z"
       class="fil6" />
    <path
       style="clip-rule:evenodd;fill:#0dbdea;fill-rule:evenodd;stroke-width:0.02540057;image-rendering:optimizeQuality;shape-rendering:geometricPrecision;text-rendering:geometricPrecision"
       inkscape:connector-curvature="0"
       id="path1408"
       d="m -34.471213,144.95147 c -0.533412,-5.89293 -4.318097,-8.02658 -9.753819,-7.95037 0.304807,-3.35288 2.540057,-2.69246 3.911688,-2.20985 3.886287,1.39703 8.001179,0.4318 10.871443,-1.11763 5.181717,-2.81946 12.319275,-5.28332 11.150852,-13.3353 -1.803443,-12.54788 -8.051983,-18.99962 -17.475593,-19.12663 -2.286052,-0.0254 -3.835486,0.93982 -4.800708,2.97187 v 0 c -8.839398,4.5467 -12.649483,13.3353 -9.576014,22.0985 0.254005,0.68581 0.406409,1.44783 0.431809,2.18444 0.0762,1.47324 0.0254,2.97187 0.0254,4.3435 -2.844863,1.44783 -3.911687,-3.47988 -5.867531,-1.70184 -2.489256,2.26065 1.219227,4.3181 1.270028,6.65495 -6.27394,-1.67644 -6.324741,-5.89293 -4.445099,-10.89684 2.413054,-4.2165 3.581481,-8.7378 3.073469,-13.61471 0.381009,-0.53341 0.762017,-1.09222 1.143026,-1.62563 3.632281,-2.89567 3.759284,-7.87418 6.680349,-11.20165 5.33412,-3.149674 11.531859,-3.708494 17.297788,-3.835494 6.350143,-0.1524 10.363433,5.232524 14.021115,10.084034 3.302074,7.82337 5.918332,15.72295 1.80344,24.10514 -5.384922,4.8769 -11.354054,9.0426 -16.967581,13.6147 -0.838219,0.63501 -1.727239,1.21923 -2.819463,0.53341 z"
       class="fil7" />
    <path
       style="clip-rule:evenodd;fill:#9bdaee;fill-rule:evenodd;stroke-width:0.02540057;image-rendering:optimizeQuality;shape-rendering:geometricPrecision;text-rendering:geometricPrecision"
       inkscape:connector-curvature="0"
       id="path1410"
       d="m -16.284405,129.91434 c 4.902309,-3.40368 1.524032,-8.07739 1.447832,-12.01447 -0.0762,-3.58148 -1.930445,-7.11216 -2.997269,-10.69364 -0.914418,-3.42908 -3.149668,-6.65495 -1.498631,-10.465044 1.016021,-0.0508 2.006645,-0.0762 3.022666,-0.1016 3.556079,4.978514 1.930445,11.379464 4.572103,16.611974 2.8702634,7.54397 -1.117624,14.93554 -0.508011,22.47951 0.152403,1.82884 -2.64166,1.93044 -4.191095,2.51465 -2.971866,1.14303 -5.791329,1.82884 -7.061359,5.71513 -0.965221,2.97187 -14.859331,4.4959 -18.542414,2.64166 2.540057,-0.53341 5.054713,-1.09222 7.59477,-1.62564 0.508012,-0.45721 1.041423,-0.93982 1.549435,-1.39703 6.451746,-2.61626 10.642839,-6.04533 16.637373,-13.6401 z"
       class="fil8" />
    <path
       style="clip-rule:evenodd;fill:#66ccea;fill-rule:evenodd;stroke-width:0.02540057;image-rendering:optimizeQuality;shape-rendering:geometricPrecision;text-rendering:geometricPrecision"
       inkscape:connector-curvature="0"
       id="path1412"
       d="m -19.332473,96.766586 c 2.184447,3.251284 1.397031,6.908964 1.498631,10.465044 -6.400942,-7.289974 -13.132094,-13.081294 -23.597127,-6.95976 -1.77804,1.04143 -4.394299,0.63502 -6.604148,0.91442 -0.203205,-0.2286 -0.406409,-0.43181 -0.635014,-0.66041 -0.304807,-0.914424 -0.203205,-1.752644 0.635014,-2.362254 2.819463,-3.02267 5.892932,-5.02932 10.109426,-2.51466 2.260651,1.34623 4.267296,-0.0254 6.451745,-0.48261 4.114893,-0.81282 8.610793,-2.92107 12.141473,1.57483 z"
       class="fil9" />
    <path
       style="clip-rule:evenodd;fill:#c9e9f3;fill-rule:evenodd;stroke-width:0.02540057;image-rendering:optimizeQuality;shape-rendering:geometricPrecision;text-rendering:geometricPrecision"
       inkscape:connector-curvature="0"
       id="path1414"
       d="m -11.737704,113.25156 c -4.419698,-4.7499 -4.114893,-10.76984 -4.572103,-16.611974 4.673706,-0.2286 5.816732,2.15905 5.156316,6.451754 -0.533413,3.32747 -0.406408,6.78195 -0.584213,10.18562 z"
       class="fil10" />
    <path
       style="clip-rule:evenodd;fill:#66ccea;fill-rule:evenodd;stroke-width:0.02540057;image-rendering:optimizeQuality;shape-rendering:geometricPrecision;text-rendering:geometricPrecision"
       inkscape:connector-curvature="0"
       id="path1416"
       d="m -55.579086,113.27696 c 2.438454,6.95976 1.244628,12.24308 -3.073469,13.61471 -2.387653,-5.30872 2.514656,-8.9664 3.073469,-13.61471 z"
       class="fil9" />
    <path
       style="clip-rule:evenodd;fill:#66ccea;fill-rule:evenodd;stroke-width:0.02540057;image-rendering:optimizeQuality;shape-rendering:geometricPrecision;text-rendering:geometricPrecision"
       inkscape:connector-curvature="0"
       id="path1418"
       d="m -48.060518,101.18629 c -0.508011,4.4705 -1.320829,8.7632 -6.400943,10.46504 0.0762,-3.37828 1.955844,-6.07074 3.327474,-8.9664 0.86362,-0.78742 1.295429,-2.38766 2.997268,-1.54944 l 0.0762,0.0762 z"
       class="fil9" />
    <path
       style="clip-rule:evenodd;fill:#9bdaee;fill-rule:evenodd;stroke-width:0.02540057;image-rendering:optimizeQuality;shape-rendering:geometricPrecision;text-rendering:geometricPrecision"
       inkscape:connector-curvature="0"
       id="path1420"
       d="m -48.136719,101.11009 c -0.990623,0.50801 -1.981245,1.04142 -2.997268,1.54944 0.0254,-2.18445 -0.101602,-4.470504 3.073469,-4.495904 -0.0254,0.99062 -0.0508,1.955844 -0.0762,2.946464 z"
       class="fil8" />
    <path
       style="clip-rule:evenodd;fill:#11a4bc;fill-rule:evenodd;stroke-width:0.02540057;image-rendering:optimizeQuality;shape-rendering:geometricPrecision;text-rendering:geometricPrecision"
       inkscape:connector-curvature="0"
       id="path1422"
       d="m -40.516549,104.18356 c 3.606881,-0.0508 6.883554,1.29543 10.007824,2.81946 6.781954,3.35288 9.322009,9.42361 6.299341,14.40213 -4.01329,6.62955 -13.309898,9.1188 -18.847222,4.5467 -3.632281,-2.99727 -2.23525,-7.34077 -1.143025,-11.17625 1.041423,-3.58148 2.438454,-7.06136 3.683082,-10.59204 z"
       class="fil11" />
    <path
       style="clip-rule:evenodd;fill:#84d2e4;fill-rule:evenodd;stroke-width:0.02540057;image-rendering:optimizeQuality;shape-rendering:geometricPrecision;text-rendering:geometricPrecision"
       inkscape:connector-curvature="0"
       id="path1424"
       d="m -16.284405,129.91434 c -3.733884,6.75655 -7.721774,13.20829 -16.637373,13.6401 5.562725,-4.5467 11.100049,-9.0934 16.637373,-13.6401 z"
       class="fil12" />
    <path
       style="clip-rule:evenodd;fill:#fefefe;fill-rule:nonzero;stroke-width:0.02540057;image-rendering:optimizeQuality;shape-rendering:geometricPrecision;text-rendering:geometricPrecision"
       inkscape:connector-curvature="0"
       id="path1426"
       d="m -19.967489,109.92409 v 0 c 0,0 0,0 0,0 z"
       class="fil5" />
    <path
       style="clip-rule:evenodd;fill:#fefefe;fill-rule:nonzero;stroke-width:0.02540057;image-rendering:optimizeQuality;shape-rendering:geometricPrecision;text-rendering:geometricPrecision"
       inkscape:connector-curvature="0"
       id="path1428"
       d="m -21.161316,113.04836 c -0.660413,0.1778 -1.193826,0.1524 -1.193826,0.1524 l 0.0254,-0.127 c 0.609616,-0.50801 2.18445,-2.00665 2.387655,-2.71786 0.1016,-0.30481 -0.0254,-0.40641 -0.0254,-0.43181 l -1.981242,0.83822 -1.67644,0.76201 v 0 c -1.143023,-1.21922 -2.895663,-2.00664 -4.851508,-2.00664 -3.454477,0 -6.27394,2.46385 -6.27394,5.48652 0,0.55881 0.0762,1.57484 0.254006,2.05745 0,0.1524 0,-0.15241 0,0 -2.235253,-0.0508 -5.105517,-0.96522 -7.645574,-2.26065 -5.029313,-2.54006 -5.33412,-4.3181 -5.33412,-4.3181 -0.787417,0.83822 -1.193826,3.60688 -0.406409,5.79133 0.508012,1.39703 2.286051,2.64166 2.286051,2.64166 v 0 c 0,0 -0.787417,0.0254 -1.625636,-0.25401 -0.838219,-0.2794 -1.143026,-0.55881 -1.143026,-0.55881 -0.48261,1.19383 0.482611,3.32748 2.184449,4.87691 0.990622,0.88902 2.794063,1.44783 2.794063,1.44783 l -2.819463,0.0762 c -0.152404,2.74326 5.765929,4.39429 5.765929,4.39429 v 0 c -1.727239,1.34623 -3.759284,2.15905 -5.918333,2.15905 -1.117625,0 -2.209849,-0.1778 -3.225872,-0.48261 2.844864,2.36225 6.527946,3.96249 10.515836,3.75929 10.592036,-0.55882 16.561171,-9.65222 16.840577,-18.59322 l 0.0254,0.0254 c 0,0 0.508013,-0.25401 1.549437,-1.29543 1.066823,-1.06682 1.727237,-2.31145 1.727237,-2.31145 0,0 -1.574835,0.68581 -2.260651,0.86362 z"
       class="fil5" />
    <path
       style="clip-rule:evenodd;fill:#fefefe;fill-rule:nonzero;stroke-width:0.02540057;image-rendering:optimizeQuality;shape-rendering:geometricPrecision;text-rendering:geometricPrecision"
       inkscape:connector-curvature="0"
       id="path1430"
       d="m -19.967489,109.92409 c 0,0.1778 0,0.0254 0,0 z"
       class="fil5" />
  </g>
</svg>
