<?xml version="1.0" encoding="UTF-8" standalone="no"?>
<!-- Created with Inkscape (http://www.inkscape.org/) -->

<svg
   xmlns:dc="http://purl.org/dc/elements/1.1/"
   xmlns:cc="http://creativecommons.org/ns#"
   xmlns:rdf="http://www.w3.org/1999/02/22-rdf-syntax-ns#"
   xmlns:svg="http://www.w3.org/2000/svg"
   xmlns="http://www.w3.org/2000/svg"
   xmlns:sodipodi="http://sodipodi.sourceforge.net/DTD/sodipodi-0.dtd"
   xmlns:inkscape="http://www.inkscape.org/namespaces/inkscape"
   width="52.657433mm"
   height="57.122051mm"
   viewBox="0 0 52.657432 57.122052"
   version="1.1"
   id="svg2287"
   inkscape:version="0.92.3 (3ce5693, 2018-03-11)"
   sodipodi:docname="whatsapp.svg">
  <defs
     id="defs2281" />
  <sodipodi:namedview
     id="base"
     pagecolor="#ffffff"
     bordercolor="#666666"
     borderopacity="1.0"
     inkscape:pageopacity="0.0"
     inkscape:pageshadow="2"
     inkscape:zoom="0.98994949"
     inkscape:cx="14.410026"
     inkscape:cy="252.81796"
     inkscape:document-units="mm"
     inkscape:current-layer="layer1"
     showgrid="false"
     fit-margin-top="0"
     fit-margin-left="0"
     fit-margin-right="0"
     fit-margin-bottom="0"
     inkscape:window-width="1366"
     inkscape:window-height="658"
     inkscape:window-x="0"
     inkscape:window-y="27"
     inkscape:window-maximized="1" />
  <metadata
     id="metadata2284">
    <rdf:RDF>
      <cc:Work
         rdf:about="">
        <dc:format>image/svg+xml</dc:format>
        <dc:type
           rdf:resource="http://purl.org/dc/dcmitype/StillImage" />
        <dc:title></dc:title>
      </cc:Work>
    </rdf:RDF>
  </metadata>
  <g
     inkscape:label="Layer 1"
     inkscape:groupmode="layer"
     id="layer1"
     transform="translate(39.060693,-130.45407)">
    <path
       style="clip-rule:evenodd;opacity:0.98999999;fill:#00ad59;fill-rule:evenodd;stroke-width:0.02540057;image-rendering:optimizeQuality;shape-rendering:geometricPrecision;text-rendering:geometricPrecision"
       inkscape:connector-curvature="0"
       id="path1432"
       d="m -18.865185,186.96248 c -4.927711,-3.25127 -9.880822,-6.52794 -14.808532,-9.77922 -2.032046,-2.36225 -1.524034,-4.8007 -0.254006,-7.26456 1.447832,-2.18445 1.32083,-4.5213 0.533412,-6.88355 -0.482611,-2.13365 -0.43181,-4.2673 0.203205,-6.37554 1.549434,-4.2927 4.4959,-7.56937 7.62017,-10.69364 2.590858,-2.38766 4.927711,-5.05472 7.747174,-7.18836 0.762017,-0.48262 1.600236,-0.83822 2.463855,-1.04143 6.0199337,-0.3048 11.2778527,2.59086 16.9167797,3.93709 0.812816,0.43181 1.447832,1.06682 1.955843,1.85424 1.346229,2.89567 1.143026,6.22314 2.590858,9.09341 1.092224,2.59085 2.082848,5.20711 2.311453,8.05197 0.152402,2.51466 -0.355608,4.87692 -1.447835,7.13757 -7.924977,16.40876 -11.735062,9.65221 -18.2630067,17.24698 -0.787419,0.91442 -5.842132,2.10825 -7.594771,1.90504 z"
       class="fil13" />
    <path
       style="clip-rule:evenodd;opacity:0.98999999;fill:#00af5f;fill-rule:evenodd;stroke-width:0.02540057;image-rendering:optimizeQuality;shape-rendering:geometricPrecision;text-rendering:geometricPrecision"
       inkscape:connector-curvature="0"
       id="path1434"
       d="m -18.865185,186.96248 c 4.064091,-1.19382 9.0426017,-1.29542 7.086759,-8.10278 -1.219228,-4.19109 2.7432607,-2.71786 4.6991037,-3.60688 6.62955,-3.02267 14.122717,-5.46112 13.309899,-15.11334 5.4611213,1.01603 3.479879,5.30872 3.759284,8.5854 0.5080113,5.61352 -3.657682,8.00117 -7.416966,10.66824 -4.673704,9.52521 -13.0304917,8.58539 -21.4380797,7.56936 z"
       class="fil14" />
    <path
       style="clip-rule:evenodd;opacity:0.98999999;fill:#0db268;fill-rule:evenodd;stroke-width:0.02540057;image-rendering:optimizeQuality;shape-rendering:geometricPrecision;text-rendering:geometricPrecision"
       inkscape:connector-curvature="0"
       id="path1436"
       d="m 2.5728947,179.39312 c 0.863618,-3.81009 5.816729,-5.23252 5.588124,-9.67762 1.67644,-5.91833 1.625637,-11.55726 -1.447832,-17.17079 -2.921066,-5.35952 -3.505279,-11.27785 -2.667058,-17.32318 1.397029,-0.86362 2.768661,-0.88902 4.08949,0.1524 4.3434983,5.30872 5.4357223,11.04925 5.4611223,16.94218 v 0.1524 c -0.0254,4.90231 -0.787416,9.88082 -1.092224,14.83394 -0.431808,6.55334 -0.431808,13.10669 -9.9062223,12.06527 z"
       class="fil15" />
    <path
       style="clip-rule:evenodd;opacity:0.98999999;fill:#0db268;fill-rule:evenodd;stroke-width:0.02540057;image-rendering:optimizeQuality;shape-rendering:geometricPrecision;text-rendering:geometricPrecision"
       inkscape:connector-curvature="0"
       id="path1438"
       d="m -31.692473,156.3548 c -0.0254,2.54005 -0.0508,5.05471 -0.0762,7.59477 1.143026,1.95584 -0.45721,3.81008 -0.228605,5.74053 -1.244628,2.33685 -2.006645,4.8007 -1.676437,7.49316 -5.664327,-2.31145 -3.505279,-7.23916 -3.810086,-11.35405 -0.254005,-6.04533 1.930444,-11.48106 4.01329,-16.96758 0.558813,-0.0508 1.117625,-0.0508 1.676438,-0.0508 1.981244,2.48926 1.092224,5.00391 0.0762,7.51857 z"
       class="fil15" />
    <path
       style="clip-rule:evenodd;opacity:0.98999999;fill:#68c187;fill-rule:evenodd;stroke-width:0.02540057;image-rendering:optimizeQuality;shape-rendering:geometricPrecision;text-rendering:geometricPrecision"
       inkscape:connector-curvature="0"
       id="path1440"
       d="m -29.78743,143.2227 c 2.057446,-11.45565 12.344677,-16.35796 20.7014627,-9.88081 0.152405,0.4318 0.279408,0.83821 0.43181,1.27002 -5.2579167,4.80071 -14.0719147,1.62564 -18.5424147,8.25519 -0.812818,0.45721 -1.676438,0.55881 -2.590858,0.3556 z"
       class="fil16" />
    <path
       style="clip-rule:evenodd;opacity:0.98999999;fill:#68c187;fill-rule:evenodd;stroke-width:0.02540057;image-rendering:optimizeQuality;shape-rendering:geometricPrecision;text-rendering:geometricPrecision"
       inkscape:connector-curvature="0"
       id="path1442"
       d="m -33.470513,148.86163 c 0.711216,6.14694 -1.574835,11.55726 -4.01329,16.96758 -2.590858,-6.57875 -2.463855,-12.52248 4.01329,-16.96758 z"
       class="fil16" />
    <path
       style="clip-rule:evenodd;opacity:0.98999999;fill:#0db268;fill-rule:evenodd;stroke-width:0.02540057;image-rendering:optimizeQuality;shape-rendering:geometricPrecision;text-rendering:geometricPrecision"
       inkscape:connector-curvature="0"
       id="path1444"
       d="m -29.78743,143.2227 c 0.584213,-0.0762 1.168426,-0.1524 1.77804,-0.2286 0.381008,0 0.736616,0.0254 1.117625,0.0254 1.473233,0.83822 3.886287,1.04142 2.667059,3.78468 -2.489255,3.17508 -4.978511,6.35015 -7.493167,9.52522 -0.0254,-2.51466 -0.0508,-5.02931 -0.0762,-7.51857 0.660415,-1.85424 1.320829,-3.73388 2.006645,-5.58813 z"
       class="fil15" />
    <path
       style="clip-rule:evenodd;opacity:0.98999999;fill:#68c187;fill-rule:evenodd;stroke-width:0.02540057;image-rendering:optimizeQuality;shape-rendering:geometricPrecision;text-rendering:geometricPrecision"
       inkscape:connector-curvature="0"
       id="path1446"
       d="m 8.1356187,135.37393 c -1.270029,0.0254 -2.565458,0.0508 -3.835485,0.0508 -4.800708,3.12427 -8.941001,0.91442 -13.055893,-1.57484 0,0 -0.330208,-0.4826 -0.330208,-0.4826 6.17234,-2.99727 11.989069,-2.87027 17.246986,2.00664 z"
       class="fil16" />
    <path
       style="clip-rule:evenodd;opacity:0.98999999;fill:#3bb775;fill-rule:evenodd;stroke-width:0.02540057;image-rendering:optimizeQuality;shape-rendering:geometricPrecision;text-rendering:geometricPrecision"
       inkscape:connector-curvature="0"
       id="path1448"
       d="m -8.7557593,133.84989 c 4.521303,-0.91441 8.661595,1.32083 13.055893,1.57484 0.685816,11.50646 11.7350623,21.81909 3.860885,34.29077 -0.508011,-3.22587 1.244629,-6.88356 -1.930442,-9.57602 -0.635014,-2.54005 -1.27003,-5.08011 -1.930443,-7.59477 -2.23525,-2.84486 0.457211,-6.68035 -1.905042,-9.52521 v 0 c -6.17234,-2.13365 -11.912867,-6.40094 -19.0250267,-3.81009 v 0 c -3.606881,1.72724 -6.883555,4.4197 -11.277853,3.86089 l -0.152404,-0.0762 c 0.965222,-5.89293 5.461123,-6.95976 10.312632,-7.54397 3.022667,-0.38101 6.324742,0.88902 8.9664007,-1.62564 z"
       class="fil17" />
    <path
       style="clip-rule:evenodd;opacity:0.98999999;fill:#0db268;fill-rule:evenodd;stroke-width:0.02540057;image-rendering:optimizeQuality;shape-rendering:geometricPrecision;text-rendering:geometricPrecision"
       inkscape:connector-curvature="0"
       id="path1450"
       d="m -16.604535,139.20941 c 7.4677677,-4.41969 13.5131027,-1.62563 19.0250267,3.81009 -6.781954,0.93982 -12.395478,-3.98789 -19.0250267,-3.81009 z"
       class="fil15" />
    <path
       style="clip-rule:evenodd;opacity:0.98999999;fill:#0db268;fill-rule:evenodd;stroke-width:0.02540057;image-rendering:optimizeQuality;shape-rendering:geometricPrecision;text-rendering:geometricPrecision"
       inkscape:connector-curvature="0"
       id="path1452"
       d="m -27.882388,143.0703 c 3.251273,-2.79406 6.807353,-4.6229 11.277853,-3.86089 -1.828841,3.25128 -4.368898,5.76593 -7.620171,7.59478 -1.219227,-1.24463 -2.438454,-2.48926 -3.657682,-3.73389 z"
       class="fil15" />
    <path
       style="clip-rule:evenodd;opacity:0.98999999;fill:#00af5f;fill-rule:evenodd;stroke-width:0.02540057;image-rendering:optimizeQuality;shape-rendering:geometricPrecision;text-rendering:geometricPrecision"
       inkscape:connector-curvature="0"
       id="path1454"
       d="m 2.4204917,143.0195 c 3.200471,2.66706 1.447832,6.29934 1.905042,9.52521 -3.149671,-2.66706 -1.422432,-6.29934 -1.905042,-9.52521 z"
       class="fil14" />
    <path
       style="clip-rule:evenodd;opacity:0.98999999;fill:#fefefe;fill-rule:nonzero;stroke-width:0.02540057;image-rendering:optimizeQuality;shape-rendering:geometricPrecision;text-rendering:geometricPrecision"
       inkscape:connector-curvature="0"
       id="path1456"
       d="m -18.407975,170.83312 0.508011,0.30481 c 2.286052,1.42243 4.90231,2.18445 7.54397,2.18445 7.8741747,0 14.2751197,-6.40095 14.2751197,-14.27512 0,-7.87418 -6.400945,-14.27512 -14.2751197,-14.27512 -7.874177,0 -14.275121,6.40094 -14.275121,14.27512 0,3.20047 1.041424,6.22314 3.022668,8.7632 l 0.355608,0.45721 -0.736617,3.78468 3.55608,-1.21923 z m 8.051981,5.00392 c -2.946467,0 -5.816731,-0.78742 -8.356788,-2.26065 l -6.527946,2.26065 1.34623,-6.90896 c -2.108248,-2.89566 -3.225872,-6.27394 -3.225872,-9.85542 0,-9.24581 7.518568,-16.76438 16.764376,-16.76438 9.2458057,0 16.7643757,7.51857 16.7643757,16.76438 0,9.24581 -7.51857,16.76438 -16.7643757,16.76438 z"
       class="fil5" />
    <path
       style="clip-rule:evenodd;opacity:0.98999999;fill:#fefefe;fill-rule:nonzero;stroke-width:0.02540057;image-rendering:optimizeQuality;shape-rendering:geometricPrecision;text-rendering:geometricPrecision"
       inkscape:connector-curvature="0"
       id="path1458"
       d="m -18.814384,152.62092 c 0,0 0.990622,-1.72724 1.77804,-1.82885 0.812818,-0.1016 1.828841,-0.1016 2.108247,0.43181 0.279406,0.53342 1.524034,3.58148 1.524034,3.58148 0,0 0.203205,0.53342 -0.127003,1.04143 -0.330207,0.50801 -1.066824,1.24463 -1.066824,1.24463 0,0 -0.406409,0.53341 0,1.09222 0.406409,0.55881 1.041424,1.57484 2.362254,2.89567 1.320829,1.32082 3.8354837,2.26065 3.8354837,2.26065 0,0 0.355608,0.0508 0.584214,-0.17781 0.228605,-0.2286 1.473234,-1.77804 1.473234,-1.77804 0,0 0.406408,-0.50801 1.066824,-0.2032 0.660413,0.3048 3.530679,1.72723 3.530679,1.72723 0,0 0.330206,0.12701 0.330206,0.63502 0,0.50801 -0.203203,1.75264 -0.635014,2.15905 -0.43181,0.43181 -1.651037,1.72724 -3.505279,1.72724 -1.85424,0 -6.2485397,-1.49864 -8.5853907,-3.83549 -2.336853,-2.33685 -4.4197,-4.72451 -4.90231,-6.88355 -0.482611,-2.15905 -0.43181,-3.14967 0.177804,-4.03869 z"
       class="fil5" />
  </g>
</svg>
